<svg width="770" height="927" viewBox="0 0 770 927" fill="none" xmlns="http://www.w3.org/2000/svg">
<g clip-path="url(#clip0_2_2)">
<rect width="770" height="927" fill="#F3E9FD" fill-opacity="0.5"/>
<path d="M275 938.5C275 907.383 263.649 877.228 242.881 853.174C222.113 829.12 193.213 812.655 161.105 806.584C128.998 800.514 95.6686 805.213 66.7974 819.882C37.9261 834.55 15.2989 858.28 2.77105 887.029C-9.75677 915.778 -11.41 947.766 -1.90706 977.543C7.59592 1007.32 27.6672 1033.04 54.8868 1050.33C82.1064 1067.62 114.79 1075.4 147.369 1072.35C179.949 1069.3 210.407 1055.61 233.556 1033.61L133.5 938.5H275Z" fill="white"/>
<path d="M673.261 44.976L694.566 53.2952L678.929 42.3641C683.778 39.5727 689.079 37.6532 694.592 36.6928C694.592 36.6928 703.292 41.4958 709.652 43.5231L698.423 34.6967C698.423 34.6967 705.531 29.4932 718.908 25.9121C722.414 24.9623 730.158 24.9943 735.727 24.6218C738.291 24.4401 740.865 24.4317 743.43 24.5967L743.91 24.6246C743.944 28.134 744.081 31.7094 744.322 35.3506C741.516 39.463 733.335 47.4591 725.996 52.9103C697.883 73.7477 667.402 61.0718 650.969 46.1799C650.996 46.1658 662.532 47.8487 673.261 44.976Z" fill="#B357C2"/>
<path d="M682.069 57.189C687.091 58.4904 692.35 57.8978 697.361 56.8822C702.387 55.8012 707.282 54.1774 711.958 52.0393C721.347 47.8549 729.614 41.5089 736.083 33.5197V33.5197C736.124 33.4679 736.175 33.4247 736.232 33.3926C736.29 33.3605 736.353 33.3401 736.419 33.3326C736.484 33.3251 736.55 33.3306 736.614 33.3488C736.677 33.367 736.736 33.3976 736.788 33.4388C736.893 33.5223 736.962 33.6442 736.978 33.7779C736.994 33.9116 736.956 34.0462 736.873 34.1523V34.1523C730.186 42.1339 721.702 48.4172 712.117 52.487C707.379 54.5588 702.43 56.109 697.358 57.1104C692.381 58.0625 687.066 58.5716 682.069 57.189Z" fill="white"/>
<path d="M724.396 104.922C724.755 104.277 730.653 93.6563 743.397 76.3397L739.398 57.1798L746.823 69.5405L755.432 58.0528L752.032 42.8679L759.866 51.8716C759.866 51.8716 771.93 42.8489 773.782 30.7578C774.769 24.1024 773.963 21.6761 772.054 20.1777C769.725 18.3368 765.404 18.6903 759.245 19.9549C753.086 21.2195 742.151 27.7033 732.867 37.5219C730.394 40.1717 728.313 43.1617 726.687 46.4011C717.077 65.1978 719.525 92.7188 724.396 104.922Z" fill="#B357C2"/>
<path opacity="0.1" d="M724.396 104.922C724.755 104.277 730.653 93.6563 743.397 76.3397L739.398 57.1798L746.823 69.5405L755.432 58.0528L752.032 42.8679L759.866 51.8716C759.866 51.8716 771.93 42.8489 773.782 30.7578C774.769 24.1024 773.963 21.6761 772.054 20.1777C769.725 18.3368 765.404 18.6903 759.245 19.9549C753.086 21.2195 742.151 27.7033 732.867 37.5219C730.394 40.1717 728.313 43.1617 726.687 46.4011C717.077 65.1978 719.525 92.7188 724.396 104.922Z" fill="black"/>
<path d="M670.589 -2.74216C671.462 -1.03937 672.439 0.608584 673.513 2.19255C677.818 8.39356 682.873 14.0386 688.564 18.9992C690.678 20.8413 692.868 22.6545 695.18 24.3572C696.334 25.2041 697.51 26.0281 698.746 26.7969C704.582 30.7945 711.045 33.7887 717.868 35.6558C721.1 36.4976 724.426 36.9299 727.766 36.9427C728.195 36.9406 728.625 36.9608 729.059 36.945C730.172 36.9073 731.261 36.8253 732.292 36.7405C744.281 35.8483 751.155 32.6505 758.449 28.4128C764.108 25.1257 769.647 19.6585 770.153 17.9499C770.209 17.7201 770.244 17.4856 770.256 17.2494C770.427 15.0394 768.417 12.7563 763.072 9.31587C752.367 2.43094 736.381 6.008 736.381 6.008L740.416 20.8543L728.524 5.25423L713.654 4.05585L718.244 18.3912L706.037 2.07454C683.748 0.115512 671.393 -2.59302 670.611 -2.74275L670.589 -2.74216Z" fill="#B357C2"/>
<path d="M673.513 2.19254C677.818 8.39355 682.873 14.0386 688.564 18.9992C690.678 20.8413 692.868 22.6545 695.18 24.3572C696.334 25.2041 697.51 26.0281 698.746 26.7969C704.582 30.7944 711.045 33.7887 717.868 35.6558C721.1 36.4976 724.426 36.9299 727.766 36.9427C728.195 36.9406 728.625 36.9607 729.059 36.945C730.172 36.9072 731.261 36.8253 732.292 36.7405C744.281 35.8483 751.155 32.6504 758.449 28.4128C764.108 25.1257 769.647 19.6585 770.153 17.9499C770.209 17.7201 770.244 17.4856 770.256 17.2494C770.277 16.8095 770.215 16.3696 770.075 15.9522C761.77 21.9295 736.729 29.6287 723.837 27.9317C710.433 26.1675 687.547 17.2406 670.681 -2.80272C671.525 -1.08293 672.471 0.585098 673.513 2.19254V2.19254Z" fill="#B357C2"/>
<path opacity="0.2" d="M673.513 2.19254C677.818 8.39355 682.873 14.0386 688.564 18.9992C690.678 20.8413 692.868 22.6545 695.18 24.3572C696.334 25.2041 697.51 26.0281 698.746 26.7969C704.582 30.7944 711.045 33.7887 717.868 35.6558C721.1 36.4976 724.426 36.9299 727.766 36.9427C728.195 36.9406 728.625 36.9607 729.059 36.945C730.172 36.9072 731.261 36.8253 732.292 36.7405C744.281 35.8483 751.155 32.6504 758.449 28.4128C764.108 25.1257 769.647 19.6585 770.153 17.9499C770.209 17.7201 770.244 17.4856 770.256 17.2494C770.277 16.8095 770.215 16.3696 770.075 15.9522C761.77 21.9295 736.729 29.6287 723.837 27.9317C710.433 26.1675 687.547 17.2406 670.681 -2.80272C671.525 -1.08293 672.471 0.585098 673.513 2.19254V2.19254Z" fill="black"/>
<path d="M770.056 16.0869C763.657 20.0452 756.773 23.1574 749.574 25.3457C742.376 27.6494 734.861 28.8088 727.304 28.7814C719.674 28.5406 712.364 26.2606 705.387 23.3949C698.46 20.4106 691.967 16.507 686.082 11.7894C686.067 11.7832 686.054 11.7719 686.046 11.7574C686.038 11.7429 686.036 11.7261 686.039 11.71C686.046 11.6972 686.056 11.6868 686.069 11.6801C686.081 11.6734 686.096 11.6707 686.11 11.6723C692.323 15.8546 698.944 19.3958 705.871 22.2415C709.3 23.6931 712.825 24.9081 716.42 25.8782C719.983 26.9197 723.65 27.5614 727.354 27.7914C734.819 27.9264 742.259 26.8943 749.406 24.7327C756.625 22.7325 763.554 19.8025 770.018 16.0163C770.018 16.0163 770.08 15.9834 770.108 16.0364C770.105 16.0488 770.098 16.0601 770.089 16.069C770.08 16.0779 770.068 16.0841 770.056 16.0869V16.0869Z" fill="white"/>
<path d="M152.93 863.52H92.04L98.33 889.75C98.81 892.91 101.14 896 105.33 898.42C114.8 903.89 130.15 903.89 139.62 898.42C144.14 895.81 146.47 892.42 146.68 889.02L152.93 863.52Z" fill="#37474F"/>
<path d="M145.5 881.5C146.79 880.755 148.014 879.902 149.16 878.95L152.58 864.95C150.803 866.904 148.723 868.558 146.42 869.85C133.58 877.26 112.99 877.45 99.71 870.45L101.25 864.2L100.78 863.54H92.04L98.33 889.76C98.81 892.92 101.14 896.01 105.33 898.43C112.08 902.32 121.8 903.43 130.26 901.77C115.09 902.91 104.68 896.27 103.12 890.16C102.5 887.72 101.41 882.32 101.41 882.32C114.09 888.73 133.4 888.48 145.5 881.5Z" fill="#263238"/>
<path d="M156.09 855.76C155.751 857.459 155.071 859.072 154.09 860.5C152.098 863.317 149.484 865.637 146.45 867.28C133.24 874.91 111.8 874.91 98.58 867.28C95.5464 865.637 92.9321 863.317 90.94 860.5C89.9642 859.069 89.2843 857.457 88.94 855.76V855.76C87.76 850.03 90.94 844.05 98.61 839.65C111.83 832.01 133.27 832.01 146.48 839.65C154.04 844.05 157.27 850.03 156.09 855.76Z" fill="#455A64"/>
<path d="M154.06 860.5C152.068 863.317 149.454 865.637 146.42 867.28C133.21 874.91 111.77 874.91 98.55 867.28C95.5164 865.637 92.9021 863.317 90.91 860.5C89.9342 859.069 89.2543 857.457 88.91 855.76V855.76L90.41 866.08C91.1 870.24 94.19 874.28 99.71 877.46C112.31 884.73 132.71 884.73 145.32 877.46C150.76 874.32 153.86 870.33 154.59 866.23L154.67 865.7L156.12 855.76C155.763 857.464 155.062 859.077 154.06 860.5V860.5Z" fill="#37474F"/>
<path d="M142.44 841.96C131.44 835.59 113.56 835.59 102.55 841.96C96.31 845.56 93.61 850.42 94.43 855.11C95.06 858.72 97.77 862.22 102.55 864.98C113.55 871.35 131.42 871.35 142.44 864.98C147.21 862.22 149.92 858.72 150.55 855.12C151.37 850.41 148.68 845.55 142.44 841.96Z" fill="#263238"/>
<path d="M96.29 859.47C97.944 861.744 100.082 863.622 102.55 864.97C113.55 871.34 131.42 871.34 142.44 864.97C144.904 863.621 147.039 861.743 148.69 859.47C148.61 855.66 146.06 851.86 141.02 848.96C130.79 843.04 114.19 843.04 103.96 848.96C98.92 851.87 96.37 855.66 96.29 859.47Z" fill="#FAFAFA"/>
<path d="M144.95 764.24L127.59 779.13L144.59 770.47C144.773 776.062 143.975 781.644 142.23 786.96C142.23 786.96 133.9 792.38 129.12 797.04L142.19 791.28C142.19 791.28 143.44 800 140.31 813.49C139.5 817.03 135.83 823.85 133.54 828.94C132.495 831.288 131.292 833.564 129.94 835.75L129.69 836.16C126.577 834.54 123.357 832.98 120.03 831.48C117.72 827.07 114.51 816.09 113.15 807.05C107.98 772.44 133.5 751.5 154.37 744C154.37 744.03 147.46 753.42 144.95 764.24Z" fill="#C2577E"/>
<path d="M130.03 766.27C126.52 770.09 124.57 775.01 123.11 779.91C121.7 784.855 120.832 789.938 120.52 795.07C119.798 805.324 121.511 815.604 125.52 825.07V825.07C125.546 825.13 125.561 825.195 125.562 825.261C125.563 825.327 125.551 825.393 125.527 825.454C125.503 825.515 125.467 825.571 125.421 825.619C125.375 825.666 125.321 825.704 125.26 825.73C125.137 825.784 124.997 825.787 124.871 825.738C124.746 825.689 124.645 825.593 124.59 825.47V825.47C120.691 815.815 119.135 805.373 120.05 795C120.449 789.845 121.408 784.748 122.91 779.8C124.41 774.96 126.46 770.03 130.03 766.27Z" fill="white"/>
<path d="M68 781.18C68.4 781.8 75 792 84.29 811.39L103.08 816.87L88.68 817.61L94.77 830.61L109.77 834.75L98.14 837.43C98.14 837.43 100.43 852.32 110.23 859.64C115.64 863.64 118.16 864.07 120.38 863.09C123.1 861.9 124.82 857.92 126.6 851.89C128.38 845.86 127.8 833.16 123.5 820.35C122.324 816.921 120.664 813.678 118.57 810.72C106.5 793.4 81.06 782.62 68 781.18Z" fill="#C2577E"/>
<path opacity="0.1" d="M68 781.18C68.4 781.8 75 792 84.29 811.39L103.08 816.87L88.68 817.61L94.77 830.61L109.77 834.75L98.14 837.43C98.14 837.43 100.43 852.32 110.23 859.64C115.64 863.64 118.16 864.07 120.38 863.09C123.1 861.9 124.82 857.92 126.6 851.89C128.38 845.86 127.8 833.16 123.5 820.35C122.324 816.921 120.664 813.678 118.57 810.72C106.5 793.4 81.06 782.62 68 781.18Z" fill="black"/>
<path d="M188.32 784.32C186.406 784.29 184.493 784.377 182.59 784.58C175.093 785.464 167.734 787.271 160.68 789.96C158.06 790.96 155.43 792.04 152.84 793.28C151.55 793.9 150.27 794.55 149.01 795.28C142.738 798.551 137.056 802.846 132.2 807.99C129.937 810.447 127.992 813.178 126.41 816.12C126.21 816.5 125.99 816.87 125.8 817.26C125.31 818.26 124.87 819.26 124.46 820.21C119.61 831.21 119.2 838.78 119.51 847.21C119.75 853.75 121.97 861.21 123.24 862.46C123.417 862.617 123.607 862.758 123.81 862.88C125.68 864.07 128.64 863.37 134.19 860.27C145.3 854.06 149.66 838.27 149.66 838.27L134.66 834.85L154.02 831.69L162.07 819.13L147.26 816.44L167.4 813.34C179.61 794.59 187.81 784.96 188.31 784.34L188.32 784.32Z" fill="#C2577E"/>
<path d="M182.59 784.58C175.093 785.464 167.734 787.271 160.68 789.96C158.06 790.96 155.43 792.04 152.84 793.28C151.55 793.9 150.27 794.55 149.01 795.28C142.738 798.551 137.056 802.846 132.2 807.99C129.937 810.447 127.992 813.178 126.41 816.12C126.21 816.5 125.99 816.87 125.8 817.26C125.31 818.26 124.87 819.26 124.46 820.21C119.61 831.21 119.2 838.78 119.51 847.21C119.75 853.75 121.97 861.21 123.24 862.46C123.417 862.617 123.607 862.758 123.81 862.88C124.189 863.105 124.606 863.258 125.04 863.33C123.67 853.19 128.65 827.47 136.21 816.89C144.07 805.89 162.71 789.89 188.33 784.43C186.415 784.366 184.499 784.416 182.59 784.58V784.58Z" fill="#C2577E"/>
<path opacity="0.2" d="M182.59 784.58C175.093 785.464 167.734 787.271 160.68 789.96C158.06 790.96 155.43 792.04 152.84 793.28C151.55 793.9 150.27 794.55 149.01 795.28C142.738 798.551 137.056 802.846 132.2 807.99C129.937 810.447 127.992 813.178 126.41 816.12C126.21 816.5 125.99 816.87 125.8 817.26C125.31 818.26 124.87 819.26 124.46 820.21C119.61 831.21 119.2 838.78 119.51 847.21C119.75 853.75 121.97 861.21 123.24 862.46C123.417 862.617 123.607 862.758 123.81 862.88C124.189 863.105 124.606 863.258 125.04 863.33C123.67 853.19 128.65 827.47 136.21 816.89C144.07 805.89 162.71 789.89 188.33 784.43C186.415 784.366 184.499 784.416 182.59 784.58V784.58Z" fill="black"/>
<path d="M124.93 863.25C124.446 855.742 124.936 848.202 126.39 840.82C127.742 833.384 130.252 826.207 133.83 819.55C137.63 812.93 143.08 807.55 148.89 802.74C154.781 798.03 161.279 794.135 168.21 791.16C168.223 791.149 168.239 791.144 168.255 791.144C168.271 791.144 168.287 791.149 168.3 791.16C168.308 791.172 168.313 791.186 168.313 791.2C168.313 791.214 168.308 791.228 168.3 791.24C161.688 794.756 155.449 798.934 149.68 803.71C146.786 806.054 144.057 808.593 141.51 811.31C138.916 813.964 136.625 816.899 134.68 820.06C131.051 826.585 128.463 833.636 127.01 840.96C125.38 848.272 124.708 855.765 125.01 863.25C125.01 863.25 125.01 863.32 124.95 863.32C124.941 863.311 124.934 863.3 124.93 863.288C124.927 863.275 124.927 863.262 124.93 863.25V863.25Z" fill="white"/>
<path d="M803.172 856H575.828C572.057 856 569 856.633 569 857.415V868.585C569 869.367 572.057 870 575.828 870H803.172C806.943 870 810 869.367 810 868.585V857.415C810 856.633 806.943 856 803.172 856Z" fill="#7E57C2"/>
<path d="M835.172 821H607.828C604.057 821 601 821.633 601 822.415V833.585C601 834.367 604.057 835 607.828 835H835.172C838.943 835 842 834.367 842 833.585V822.415C842 821.633 838.943 821 835.172 821Z" fill="#7E57C2"/>
<path d="M883.172 784H655.828C652.057 784 649 784.633 649 785.415V796.585C649 797.367 652.057 798 655.828 798H883.172C886.943 798 890 797.367 890 796.585V785.415C890 784.633 886.943 784 883.172 784Z" fill="#7E57C2"/>
<path d="M424.492 210.953H390.219V218.846H424.492V210.953Z" fill="#BA68C8"/>
<path d="M412.737 222.357H390.219V230.251H412.737V222.357Z" fill="#BA68C8"/>
<path d="M403.185 233.762H390.219V241.655H403.185V233.762Z" fill="#BA68C8"/>
<g opacity="0.2">
<path d="M424.492 210.953H390.219V218.846H424.492V210.953Z" fill="black"/>
<path d="M412.737 222.357H390.219V230.251H412.737V222.357Z" fill="black"/>
<path d="M403.185 233.762H390.219V241.655H403.185V233.762Z" fill="black"/>
</g>
<path d="M330.703 298.362V322.128H342.325V298.362H330.703Z" fill="#BA68C8"/>
<path d="M347.495 306.522V322.128H359.117V306.522H347.495Z" fill="#BA68C8"/>
<path d="M364.274 313.132V322.115H375.897V313.132H364.274Z" fill="#BA68C8"/>
<g opacity="0.2">
<path d="M330.703 298.362V322.128H342.325V298.362H330.703Z" fill="black"/>
<path d="M347.495 306.522V322.128H359.117V306.522H347.495Z" fill="black"/>
<path d="M364.274 313.132V322.115H375.897V313.132H364.274Z" fill="black"/>
</g>
<path d="M328.1 339.464H468.839C470.682 339.467 472.508 339.107 474.211 338.404C475.915 337.701 477.463 336.669 478.768 335.366C480.072 334.064 481.107 332.518 481.813 330.815C482.519 329.113 482.882 327.288 482.882 325.445V209.464C482.882 207.621 482.519 205.796 481.813 204.093C481.107 202.391 480.072 200.844 478.768 199.542C477.463 198.24 475.915 197.208 474.211 196.504C472.508 195.801 470.682 195.441 468.839 195.444H328.1C326.257 195.443 324.432 195.804 322.729 196.508C321.026 197.211 319.479 198.244 318.175 199.545C316.87 200.847 315.836 202.393 315.129 204.095C314.422 205.797 314.058 207.621 314.056 209.464V325.445C314.058 327.287 314.422 329.112 315.129 330.813C315.836 332.515 316.87 334.061 318.175 335.363C319.479 336.665 321.026 337.697 322.729 338.401C324.432 339.104 326.257 339.466 328.1 339.464V339.464Z" stroke="#263238" stroke-width="1.0631" stroke-miterlimit="10"/>
<path d="M416.841 299.646H467.023" stroke="#263238" stroke-width="1.0631" stroke-miterlimit="10"/>
<path d="M416.841 305.009H467.023" stroke="#263238" stroke-width="1.0631" stroke-miterlimit="10"/>
<path d="M416.841 310.372H467.023" stroke="#263238" stroke-width="1.0631" stroke-miterlimit="10"/>
<path d="M416.841 315.747H467.023" stroke="#263238" stroke-width="1.0631" stroke-miterlimit="10"/>
<path d="M416.841 321.111H467.023" stroke="#263238" stroke-width="1.0631" stroke-miterlimit="10"/>
<path d="M329.165 212.127H379.347" stroke="#263238" stroke-width="1.0631" stroke-miterlimit="10"/>
<path d="M329.165 217.49H379.347" stroke="#263238" stroke-width="1.0631" stroke-miterlimit="10"/>
<path d="M329.165 222.854H379.347" stroke="#263238" stroke-width="1.0631" stroke-miterlimit="10"/>
<path d="M329.165 228.217H379.347" stroke="#263238" stroke-width="1.0631" stroke-miterlimit="10"/>
<path d="M329.165 233.592H379.347" stroke="#263238" stroke-width="1.0631" stroke-miterlimit="10"/>
<path d="M460.74 254.307L470.304 259.331L469.226 232.357L446.369 246.776L455.933 251.788L448.742 265.481C447.47 265.486 446.236 265.912 445.231 266.692L432.568 260.808C432.568 259.26 431.953 257.776 430.858 256.682C429.764 255.587 428.28 254.972 426.732 254.972C425.185 254.972 423.7 255.587 422.606 256.682C421.512 257.776 420.897 259.26 420.897 260.808C420.896 261.644 421.078 262.47 421.429 263.229L404.831 281.219C404.303 281.05 403.752 280.96 403.197 280.953C402.917 280.963 402.638 280.991 402.362 281.038L378.5 250.88C378.843 250.12 379.016 249.293 379.008 248.459C379.008 246.911 378.393 245.427 377.299 244.333C376.205 243.238 374.72 242.624 373.173 242.624C371.625 242.624 370.141 243.238 369.046 244.333C367.952 245.427 367.337 246.911 367.337 248.459C367.35 249.06 367.452 249.656 367.64 250.227L340.388 277.975C339.748 277.741 339.072 277.618 338.39 277.612C337.239 277.614 336.115 277.958 335.159 278.599C334.203 279.24 333.458 280.151 333.019 281.215C332.58 282.279 332.467 283.45 332.693 284.578C332.919 285.707 333.474 286.744 334.289 287.557C335.104 288.37 336.142 288.923 337.271 289.147C338.4 289.371 339.57 289.255 340.634 288.814C341.697 288.373 342.606 287.626 343.245 286.669C343.885 285.712 344.226 284.586 344.226 283.435C344.223 282.952 344.158 282.472 344.032 282.006L371.514 253.943C372.051 254.112 372.61 254.202 373.173 254.21C373.53 254.209 373.886 254.176 374.238 254.113L397.979 284.21C397.55 285.069 397.339 286.02 397.365 286.98C397.392 287.94 397.655 288.878 398.131 289.712C398.607 290.546 399.281 291.25 400.094 291.761C400.907 292.271 401.834 292.574 402.792 292.641C403.75 292.707 404.709 292.537 405.586 292.144C406.462 291.751 407.228 291.148 407.815 290.389C408.402 289.629 408.793 288.736 408.953 287.789C409.112 286.842 409.036 285.871 408.73 284.96L425.752 266.522C426.075 266.579 426.403 266.612 426.732 266.619C427.889 266.62 429.019 266.275 429.977 265.626L442.931 271.679C442.981 272.578 443.238 273.452 443.682 274.234C444.126 275.016 444.746 275.685 445.492 276.187C446.238 276.69 447.09 277.013 447.982 277.131C448.874 277.248 449.781 277.158 450.632 276.867C451.483 276.575 452.255 276.091 452.887 275.451C453.519 274.811 453.995 274.033 454.276 273.179C454.558 272.325 454.637 271.417 454.509 270.526C454.38 269.636 454.047 268.788 453.536 268.047L460.74 254.307Z" fill="#263238"/>
<path d="M281.889 280.808L265.521 255.227L238.475 275.118L213.535 225.759L147.724 267.6V301.401H296.126V272.987L281.889 280.808Z" fill="#263238" stroke="#263238" stroke-width="1.16063" stroke-linecap="round" stroke-linejoin="round"/>
<path d="M284.734 299.985L266.95 272.987L237.058 285.069L202.179 251.679L147.724 273.665V322.721H296.126V292.164L284.734 299.985Z" fill="#BA68C8" stroke="#263238" stroke-width="0.876601" stroke-miterlimit="10"/>
<path opacity="0.2" d="M284.734 299.985L266.95 272.987L237.058 285.069L202.179 251.679L147.724 273.665V322.721H296.126V292.164L284.734 299.985Z" fill="black"/>
<path d="M284.734 299.985L266.95 272.987L237.058 285.069L202.179 251.679L147.724 273.665V322.721H296.126V292.164L284.734 299.985Z" stroke="#263238" stroke-width="0.876601" stroke-miterlimit="10"/>
<path d="M232.046 213.241H220.097C219.366 213.236 218.656 213.478 218.08 213.928C217.505 214.379 217.099 215.011 216.929 215.722C216.759 216.432 216.835 217.179 217.144 217.841C217.454 218.504 217.978 219.041 218.632 219.367L214.455 223.81L222.071 219.73H232.046C232.907 219.73 233.732 219.388 234.341 218.78C234.949 218.171 235.291 217.346 235.291 216.486C235.291 215.625 234.949 214.8 234.341 214.191C233.732 213.583 232.907 213.241 232.046 213.241V213.241Z" fill="#BA68C8"/>
<path opacity="0.2" d="M232.046 213.241H220.097C219.366 213.236 218.656 213.478 218.08 213.928C217.505 214.379 217.099 215.011 216.929 215.722C216.759 216.432 216.835 217.179 217.144 217.841C217.454 218.504 217.978 219.041 218.632 219.367L214.455 223.81L222.071 219.73H232.046C232.907 219.73 233.732 219.388 234.341 218.78C234.949 218.171 235.291 217.346 235.291 216.486C235.291 215.625 234.949 214.8 234.341 214.191C233.732 213.583 232.907 213.241 232.046 213.241V213.241Z" fill="black"/>
<path d="M284.383 242.127H272.434C271.703 242.122 270.992 242.364 270.417 242.815C269.842 243.265 269.436 243.897 269.266 244.608C269.096 245.318 269.172 246.066 269.481 246.728C269.79 247.39 270.315 247.927 270.969 248.253L266.792 252.733L274.407 248.641H284.383C285.244 248.641 286.069 248.299 286.677 247.69C287.286 247.082 287.628 246.257 287.628 245.396C287.628 244.535 287.286 243.71 286.677 243.102C286.069 242.493 285.244 242.151 284.383 242.151V242.127Z" fill="#BA68C8"/>
<path opacity="0.2" d="M284.383 242.127H272.434C271.703 242.122 270.992 242.364 270.417 242.815C269.842 243.265 269.436 243.897 269.266 244.608C269.096 245.318 269.172 246.066 269.481 246.728C269.79 247.39 270.315 247.927 270.969 248.253L266.792 252.733L274.407 248.641H284.383C285.244 248.641 286.069 248.299 286.677 247.69C287.286 247.082 287.628 246.257 287.628 245.396C287.628 244.535 287.286 243.71 286.677 243.102C286.069 242.493 285.244 242.151 284.383 242.151V242.127Z" fill="black"/>
<path d="M153.717 339.464H294.456C296.299 339.467 298.124 339.107 299.828 338.404C301.532 337.701 303.08 336.669 304.385 335.366C305.689 334.064 306.724 332.518 307.43 330.815C308.136 329.113 308.499 327.288 308.499 325.445V209.464C308.499 207.621 308.136 205.796 307.43 204.093C306.724 202.391 305.689 200.844 304.385 199.542C303.08 198.24 301.532 197.208 299.828 196.504C298.124 195.801 296.299 195.441 294.456 195.444H153.717C151.874 195.441 150.048 195.801 148.344 196.504C146.641 197.208 145.092 198.24 143.788 199.542C142.484 200.844 141.449 202.391 140.743 204.093C140.037 205.796 139.673 207.621 139.673 209.464V325.445C139.673 327.288 140.037 329.113 140.743 330.815C141.449 332.518 142.484 334.064 143.788 335.366C145.092 336.669 146.641 337.701 148.344 338.404C150.048 339.107 151.874 339.467 153.717 339.464V339.464Z" stroke="#263238" stroke-width="1.0631" stroke-miterlimit="10"/>
<path d="M150.363 211.098H160.061" stroke="#263238" stroke-width="1.0631" stroke-miterlimit="10"/>
<path d="M150.363 221.655H160.061" stroke="#263238" stroke-width="1.0631" stroke-miterlimit="10"/>
<path d="M150.363 232.212H160.061" stroke="#263238" stroke-width="1.0631" stroke-miterlimit="10"/>
<path d="M150.363 242.769H160.061" stroke="#263238" stroke-width="1.0631" stroke-miterlimit="10"/>
<path d="M150.363 253.326H160.061" stroke="#263238" stroke-width="1.0631" stroke-miterlimit="10"/>
<path d="M531.224 225.408C524.919 225.418 518.758 227.296 513.521 230.806C508.283 234.316 504.203 239.299 501.797 245.127C499.391 250.955 498.766 257.365 500.002 263.548C501.238 269.73 504.279 275.408 508.741 279.863C513.202 284.317 518.885 287.35 525.069 288.576C531.254 289.803 537.663 289.168 543.487 286.753C549.311 284.338 554.288 280.251 557.79 275.008C561.292 269.765 563.161 263.602 563.161 257.297C563.148 248.835 559.778 240.724 553.79 234.745C547.802 228.766 539.686 225.408 531.224 225.408V225.408ZM531.224 279.815C526.771 279.798 522.423 278.462 518.729 275.976C515.035 273.49 512.16 269.964 510.468 265.845C508.776 261.726 508.343 257.198 509.223 252.833C510.102 248.468 512.256 244.461 515.412 241.319C518.567 238.177 522.583 236.041 526.952 235.18C531.321 234.319 535.847 234.771 539.959 236.481C544.07 238.191 547.583 241.08 550.054 244.785C552.524 248.49 553.841 252.844 553.839 257.297C553.833 260.26 553.243 263.193 552.103 265.929C550.963 268.664 549.295 271.149 547.195 273.24C545.095 275.331 542.604 276.988 539.864 278.116C537.123 279.244 534.187 279.821 531.224 279.815V279.815Z" fill="#BA68C8" stroke="#263238" stroke-width="1.0631" stroke-miterlimit="10"/>
<g opacity="0.2">
<path d="M531.224 225.408C524.919 225.418 518.758 227.296 513.521 230.806C508.283 234.316 504.203 239.299 501.797 245.127C499.391 250.955 498.766 257.365 500.002 263.548C501.238 269.73 504.279 275.408 508.741 279.863C513.202 284.317 518.885 287.35 525.069 288.576C531.254 289.803 537.663 289.168 543.487 286.753C549.311 284.338 554.288 280.251 557.79 275.008C561.292 269.765 563.161 263.602 563.161 257.297C563.148 248.835 559.778 240.724 553.79 234.745C547.802 228.766 539.686 225.408 531.224 225.408V225.408ZM531.224 279.815C526.771 279.798 522.423 278.462 518.729 275.976C515.035 273.49 512.16 269.964 510.468 265.845C508.776 261.726 508.343 257.198 509.223 252.833C510.102 248.468 512.256 244.461 515.412 241.319C518.567 238.177 522.583 236.041 526.952 235.18C531.321 234.319 535.847 234.771 539.959 236.481C544.07 238.191 547.583 241.08 550.054 244.785C552.524 248.49 553.841 252.844 553.839 257.297C553.833 260.26 553.243 263.193 552.103 265.929C550.963 268.664 549.295 271.149 547.195 273.24C545.095 275.331 542.604 276.988 539.864 278.116C537.123 279.244 534.187 279.821 531.224 279.815V279.815Z" fill="black"/>
</g>
<path d="M531.224 225.408C524.919 225.418 518.758 227.296 513.521 230.806C508.283 234.316 504.203 239.299 501.797 245.127C499.391 250.955 498.766 257.365 500.002 263.548C501.238 269.73 504.279 275.408 508.741 279.863C513.202 284.317 518.885 287.35 525.069 288.576C531.254 289.803 537.663 289.168 543.487 286.753C549.311 284.338 554.288 280.251 557.79 275.008C561.292 269.765 563.161 263.602 563.161 257.297C563.148 248.835 559.778 240.724 553.79 234.745C547.802 228.766 539.686 225.408 531.224 225.408V225.408ZM531.224 279.815C526.771 279.798 522.423 278.462 518.729 275.976C515.035 273.49 512.16 269.964 510.468 265.845C508.776 261.726 508.343 257.198 509.223 252.833C510.102 248.468 512.256 244.461 515.412 241.319C518.567 238.177 522.583 236.041 526.952 235.18C531.321 234.319 535.847 234.771 539.959 236.481C544.07 238.191 547.583 241.08 550.054 244.785C552.524 248.49 553.841 252.844 553.839 257.297C553.833 260.26 553.243 263.193 552.103 265.929C550.963 268.664 549.295 271.149 547.195 273.24C545.095 275.331 542.604 276.988 539.864 278.116C537.123 279.244 534.187 279.821 531.224 279.815V279.815Z" stroke="#263238" stroke-width="1.0631" stroke-miterlimit="10"/>
<path d="M531.224 225.408C526.914 225.391 522.646 226.252 518.681 227.94C514.715 229.629 511.136 232.108 508.161 235.226L514.929 241.703C517.504 239.006 520.709 236.991 524.255 235.837C527.801 234.683 531.579 234.426 535.248 235.091C538.918 235.756 542.365 237.32 545.282 239.645C548.198 241.969 550.492 244.981 551.958 248.41C553.424 251.839 554.017 255.578 553.683 259.293C553.348 263.007 552.098 266.581 550.043 269.693C547.988 272.805 545.194 275.359 541.909 277.125C538.625 278.892 534.953 279.816 531.224 279.815V289.173C535.463 289.256 539.676 288.492 543.617 286.927C547.557 285.362 551.146 283.027 554.173 280.058C557.2 277.089 559.605 273.547 561.247 269.637C562.888 265.728 563.734 261.531 563.734 257.291C563.734 253.051 562.888 248.853 561.247 244.944C559.605 241.035 557.2 237.492 554.173 234.523C551.146 231.555 547.557 229.219 543.617 227.654C539.676 226.089 535.463 225.325 531.224 225.408V225.408Z" fill="#263238" stroke="#263238" stroke-width="1.0631" stroke-linecap="round" stroke-linejoin="round"/>
<path d="M609.989 225.408C603.684 225.418 597.524 227.296 592.286 230.806C587.048 234.316 582.969 239.299 580.563 245.127C578.156 250.955 577.532 257.365 578.768 263.548C580.004 269.73 583.045 275.408 587.506 279.863C591.968 284.317 597.65 287.35 603.834 288.576C610.019 289.803 616.428 289.168 622.252 286.753C628.076 284.338 633.054 280.251 636.556 275.008C640.057 269.765 641.926 263.602 641.926 257.297C641.914 248.835 638.543 240.724 632.555 234.745C626.567 228.766 618.451 225.408 609.989 225.408V225.408ZM609.989 279.815C605.533 279.813 601.178 278.489 597.474 276.011C593.77 273.534 590.885 270.013 589.182 265.895C587.478 261.778 587.035 257.247 587.906 252.877C588.778 248.507 590.926 244.494 594.079 241.345C597.231 238.196 601.247 236.052 605.618 235.185C609.989 234.318 614.519 234.766 618.635 236.474C622.751 238.181 626.268 241.071 628.741 244.778C631.215 248.484 632.534 252.841 632.532 257.297C632.516 263.268 630.135 268.99 625.91 273.21C621.685 277.431 615.961 279.805 609.989 279.815V279.815Z" fill="#BA68C8" stroke="#263238" stroke-width="1.0631" stroke-miterlimit="10"/>
<g opacity="0.2">
<path d="M609.989 225.408C603.684 225.418 597.524 227.296 592.286 230.806C587.048 234.316 582.969 239.299 580.563 245.127C578.156 250.955 577.532 257.365 578.768 263.548C580.004 269.73 583.045 275.408 587.506 279.863C591.968 284.317 597.65 287.35 603.834 288.576C610.019 289.803 616.428 289.168 622.252 286.753C628.076 284.338 633.054 280.251 636.556 275.008C640.057 269.765 641.926 263.602 641.926 257.297C641.914 248.835 638.543 240.724 632.555 234.745C626.567 228.766 618.451 225.408 609.989 225.408V225.408ZM609.989 279.815C605.533 279.813 601.178 278.489 597.474 276.011C593.77 273.534 590.885 270.013 589.182 265.895C587.478 261.778 587.035 257.247 587.906 252.877C588.778 248.507 590.926 244.494 594.079 241.345C597.231 238.196 601.247 236.052 605.618 235.185C609.989 234.318 614.519 234.766 618.635 236.474C622.751 238.181 626.268 241.071 628.741 244.778C631.215 248.484 632.534 252.841 632.532 257.297C632.516 263.268 630.135 268.99 625.91 273.21C621.685 277.431 615.961 279.805 609.989 279.815V279.815Z" fill="black"/>
</g>
<path d="M609.989 225.408C603.684 225.418 597.524 227.296 592.286 230.806C587.048 234.316 582.969 239.299 580.563 245.127C578.156 250.955 577.532 257.365 578.768 263.548C580.004 269.73 583.045 275.408 587.506 279.863C591.968 284.317 597.65 287.35 603.834 288.576C610.019 289.803 616.428 289.168 622.252 286.753C628.076 284.338 633.054 280.251 636.556 275.008C640.057 269.765 641.926 263.602 641.926 257.297C641.914 248.835 638.543 240.724 632.555 234.745C626.567 228.766 618.451 225.408 609.989 225.408V225.408ZM609.989 279.815C605.533 279.813 601.178 278.489 597.474 276.011C593.77 273.534 590.885 270.013 589.182 265.895C587.478 261.778 587.035 257.247 587.906 252.877C588.778 248.507 590.926 244.494 594.079 241.345C597.231 238.196 601.247 236.052 605.618 235.185C609.989 234.318 614.519 234.766 618.635 236.474C622.751 238.181 626.268 241.071 628.741 244.778C631.215 248.484 632.534 252.841 632.532 257.297C632.516 263.268 630.135 268.99 625.91 273.21C621.685 277.431 615.961 279.805 609.989 279.815V279.815Z" stroke="#263238" stroke-width="1.0631" stroke-miterlimit="10"/>
<path d="M622.423 227.914L618.791 236.534C623.579 238.559 627.52 242.178 629.945 246.778C632.369 251.377 633.129 256.673 632.094 261.769C631.059 266.864 628.294 271.444 624.268 274.734C620.241 278.023 615.201 279.818 610.001 279.815V289.173C617.368 289.19 624.512 286.656 630.221 282C635.929 277.345 639.849 270.856 641.314 263.637C642.78 256.419 641.699 248.915 638.258 242.402C634.816 235.89 629.225 230.77 622.435 227.914H622.423Z" fill="#263238" stroke="#263238" stroke-width="1.0631" stroke-linecap="round" stroke-linejoin="round"/>
<path d="M637.762 195.444H506.163C503.872 195.443 501.603 195.892 499.486 196.768C497.369 197.643 495.445 198.927 493.824 200.545C492.203 202.164 490.916 204.087 490.038 206.203C489.16 208.319 488.707 210.587 488.706 212.878V322.043C488.712 326.667 490.555 331.1 493.828 334.367C497.102 337.634 501.539 339.467 506.163 339.464H637.762C640.052 339.467 642.321 339.019 644.438 338.145C646.555 337.271 648.479 335.989 650.1 334.371C651.722 332.753 653.008 330.831 653.887 328.716C654.765 326.601 655.218 324.333 655.219 322.043V212.878C655.218 210.587 654.765 208.319 653.887 206.203C653.009 204.087 651.722 202.164 650.101 200.545C648.48 198.927 646.556 197.643 644.439 196.768C642.322 195.892 640.053 195.443 637.762 195.444V195.444Z" stroke="#263238" stroke-width="1.0631" stroke-miterlimit="10"/>
<path d="M502.846 299.646H553.016" stroke="#263238" stroke-width="1.0631" stroke-miterlimit="10"/>
<path d="M502.846 305.009H553.016" stroke="#263238" stroke-width="1.0631" stroke-miterlimit="10"/>
<path d="M502.846 310.372H553.016" stroke="#263238" stroke-width="1.0631" stroke-miterlimit="10"/>
<path d="M502.846 315.747H553.016" stroke="#263238" stroke-width="1.0631" stroke-miterlimit="10"/>
<path d="M502.846 321.111H553.016" stroke="#263238" stroke-width="1.0631" stroke-miterlimit="10"/>
<path d="M585.704 299.646H635.885" stroke="#263238" stroke-width="1.0631" stroke-miterlimit="10"/>
<path d="M585.704 305.009H635.885" stroke="#263238" stroke-width="1.0631" stroke-miterlimit="10"/>
<path d="M585.704 310.372H635.885" stroke="#263238" stroke-width="1.0631" stroke-miterlimit="10"/>
<path d="M585.704 315.747H635.885" stroke="#263238" stroke-width="1.0631" stroke-miterlimit="10"/>
<path d="M585.704 321.111H635.885" stroke="#263238" stroke-width="1.0631" stroke-miterlimit="10"/>
<path d="M545.195 210.226H595.365" stroke="#263238" stroke-width="1.0631" stroke-miterlimit="10"/>
<path d="M545.195 215.602H595.365" stroke="#263238" stroke-width="1.0631" stroke-miterlimit="10"/>
<path d="M488.173 541.281H636.696C641.604 541.284 646.312 539.338 649.785 535.872C653.258 532.405 655.213 527.701 655.219 522.794V366.365C655.218 363.934 654.738 361.527 653.806 359.282C652.874 357.037 651.509 354.997 649.789 353.279C648.069 351.561 646.028 350.199 643.781 349.27C641.535 348.342 639.127 347.864 636.696 347.866H417.325C414.894 347.864 412.487 348.342 410.241 349.27C407.994 350.199 405.953 351.561 404.233 353.279C402.513 354.997 401.148 357.037 400.216 359.282C399.284 361.527 398.804 363.934 398.802 366.365V469.44" stroke="#263238" stroke-width="1.0631" stroke-miterlimit="10"/>
<path d="M470.643 439.089H435.316V490.433H470.643V439.089Z" fill="#BA68C8" stroke="#263238" stroke-width="1.16063" stroke-miterlimit="10"/>
<path opacity="0.2" d="M470.643 439.089H435.316V490.433H470.643V439.089Z" fill="black"/>
<path d="M470.643 439.089H435.316V490.433H470.643V439.089Z" stroke="#263238" stroke-width="1.16063" stroke-miterlimit="10"/>
<path d="M519.698 413.411H484.371V470.251H519.698V413.411Z" fill="#BA68C8" stroke="#263238" stroke-width="1.16063" stroke-miterlimit="10"/>
<path opacity="0.2" d="M519.698 413.411H484.371V470.251H519.698V413.411Z" fill="black"/>
<path d="M519.698 413.411H484.371V470.251H519.698V413.411Z" stroke="#263238" stroke-width="1.16063" stroke-miterlimit="10"/>
<path d="M568.754 392.333H533.427V429.924H568.754V392.333Z" fill="#BA68C8" stroke="#263238" stroke-width="1.16063" stroke-miterlimit="10"/>
<path opacity="0.2" d="M568.754 392.333H533.427V429.924H568.754V392.333Z" fill="black"/>
<path d="M568.754 392.333H533.427V429.924H568.754V392.333Z" stroke="#263238" stroke-width="1.16063" stroke-miterlimit="10"/>
<path d="M470.643 490.421H435.316V511.511H470.643V490.421Z" fill="#263238" stroke="#263238" stroke-width="1.16063" stroke-linecap="round" stroke-linejoin="round"/>
<path d="M519.698 470.251H484.371V511.511H519.698V470.251Z" fill="#263238" stroke="#263238" stroke-width="1.16063" stroke-linecap="round" stroke-linejoin="round"/>
<path d="M614.917 413.411H579.59V470.251H614.917V413.411Z" fill="#BA68C8" stroke="#263238" stroke-width="1.16063" stroke-miterlimit="10"/>
<path opacity="0.2" d="M614.917 413.411H579.59V470.251H614.917V413.411Z" fill="black"/>
<path d="M614.917 413.411H579.59V470.251H614.917V413.411Z" stroke="#263238" stroke-width="1.16063" stroke-miterlimit="10"/>
<path d="M614.917 470.251H579.59V511.511H614.917V470.251Z" fill="#263238" stroke="#263238" stroke-width="1.16063" stroke-linecap="round" stroke-linejoin="round"/>
<path d="M568.754 429.912H533.427V511.51H568.754V429.912Z" fill="#263238" stroke="#263238" stroke-width="1.16063" stroke-linecap="round" stroke-linejoin="round"/>
<path d="M513.573 392.406H491.526C490.515 392.406 489.545 392.808 488.83 393.523C488.115 394.238 487.713 395.208 487.713 396.22V401.292C487.713 402.304 488.115 403.274 488.83 403.989C489.545 404.704 490.515 405.106 491.526 405.106H499.698L502.556 410.045L505.401 405.106H513.573C514.584 405.106 515.554 404.704 516.269 403.989C516.984 403.274 517.386 402.304 517.386 401.292V396.22C517.386 395.208 516.984 394.238 516.269 393.523C515.554 392.808 514.584 392.406 513.573 392.406V392.406Z" fill="#BA68C8"/>
<path opacity="0.5" d="M513.573 392.406H491.526C490.515 392.406 489.545 392.808 488.83 393.523C488.115 394.238 487.713 395.208 487.713 396.22V401.292C487.713 402.304 488.115 403.274 488.83 403.989C489.545 404.704 490.515 405.106 491.526 405.106H499.698L502.556 410.045L505.401 405.106H513.573C514.584 405.106 515.554 404.704 516.269 403.989C516.984 403.274 517.386 402.304 517.386 401.292V396.22C517.386 395.208 516.984 394.238 516.269 393.523C515.554 392.808 514.584 392.406 513.573 392.406V392.406Z" fill="white"/>
<path d="M513.573 392.406H491.526C490.515 392.406 489.545 392.808 488.83 393.523C488.115 394.238 487.713 395.208 487.713 396.22V401.292C487.713 402.304 488.115 403.274 488.83 403.989C489.545 404.704 490.515 405.106 491.526 405.106H499.698L502.556 410.045L505.401 405.106H513.573C514.584 405.106 515.554 404.704 516.269 403.989C516.984 403.274 517.386 402.304 517.386 401.292V396.22C517.386 395.208 516.984 394.238 516.269 393.523C515.554 392.808 514.584 392.406 513.573 392.406V392.406Z" stroke="#263238" stroke-width="1.16689" stroke-linecap="round" stroke-linejoin="round"/>
<path d="M463.996 418.738H441.962C440.953 418.738 439.985 419.138 439.27 419.851C438.555 420.563 438.152 421.53 438.149 422.539V427.624C438.152 428.633 438.555 429.6 439.27 430.313C439.985 431.025 440.953 431.426 441.962 431.426H450.122L452.979 436.365L455.836 431.426H463.996C465.005 431.426 465.974 431.025 466.688 430.313C467.403 429.6 467.806 428.633 467.81 427.624V422.539C467.806 421.53 467.403 420.563 466.688 419.851C465.974 419.138 465.005 418.738 463.996 418.738V418.738Z" fill="#BA68C8"/>
<path opacity="0.5" d="M463.996 418.738H441.962C440.953 418.738 439.985 419.138 439.27 419.851C438.555 420.563 438.152 421.53 438.149 422.539V427.624C438.152 428.633 438.555 429.6 439.27 430.313C439.985 431.025 440.953 431.426 441.962 431.426H450.122L452.979 436.365L455.836 431.426H463.996C465.005 431.426 465.974 431.025 466.688 430.313C467.403 429.6 467.806 428.633 467.81 427.624V422.539C467.806 421.53 467.403 420.563 466.688 419.851C465.974 419.138 465.005 418.738 463.996 418.738V418.738Z" fill="white"/>
<path d="M463.996 418.738H441.962C440.953 418.738 439.985 419.138 439.27 419.851C438.555 420.563 438.152 421.53 438.149 422.539V427.624C438.152 428.633 438.555 429.6 439.27 430.313C439.985 431.025 440.953 431.426 441.962 431.426H450.122L452.979 436.365L455.836 431.426H463.996C465.005 431.426 465.974 431.025 466.688 430.313C467.403 429.6 467.806 428.633 467.81 427.624V422.539C467.806 421.53 467.403 420.563 466.688 419.851C465.974 419.138 465.005 418.738 463.996 418.738V418.738Z" stroke="#263238" stroke-width="1.16689" stroke-linecap="round" stroke-linejoin="round"/>
<path d="M561.89 371.256H539.844C538.832 371.256 537.862 371.658 537.147 372.373C536.432 373.088 536.03 374.058 536.03 375.069V380.142C536.03 380.642 536.129 381.138 536.321 381.6C536.513 382.062 536.794 382.481 537.148 382.834C537.502 383.188 537.923 383.467 538.385 383.658C538.848 383.848 539.344 383.945 539.844 383.944H548.016L550.861 388.883L553.718 383.944H561.89C562.39 383.945 562.886 383.848 563.348 383.658C563.811 383.467 564.231 383.188 564.586 382.834C564.94 382.481 565.221 382.062 565.413 381.6C565.605 381.138 565.703 380.642 565.703 380.142V375.069C565.703 374.058 565.302 373.088 564.586 372.373C563.871 371.658 562.901 371.256 561.89 371.256V371.256Z" fill="#BA68C8"/>
<path opacity="0.5" d="M561.89 371.256H539.844C538.832 371.256 537.862 371.658 537.147 372.373C536.432 373.088 536.03 374.058 536.03 375.069V380.142C536.03 380.642 536.129 381.138 536.321 381.6C536.513 382.062 536.794 382.481 537.148 382.834C537.502 383.188 537.923 383.467 538.385 383.658C538.848 383.848 539.344 383.945 539.844 383.944H548.016L550.861 388.883L553.718 383.944H561.89C562.39 383.945 562.886 383.848 563.348 383.658C563.811 383.467 564.231 383.188 564.586 382.834C564.94 382.481 565.221 382.062 565.413 381.6C565.605 381.138 565.703 380.642 565.703 380.142V375.069C565.703 374.058 565.302 373.088 564.586 372.373C563.871 371.658 562.901 371.256 561.89 371.256V371.256Z" fill="white"/>
<path d="M561.89 371.256H539.844C538.832 371.256 537.862 371.658 537.147 372.373C536.432 373.088 536.03 374.058 536.03 375.069V380.142C536.03 380.642 536.129 381.138 536.321 381.6C536.513 382.062 536.794 382.481 537.148 382.834C537.502 383.188 537.923 383.467 538.385 383.658C538.848 383.848 539.344 383.945 539.844 383.944H548.016L550.861 388.883L553.718 383.944H561.89C562.39 383.945 562.886 383.848 563.348 383.658C563.811 383.467 564.231 383.188 564.586 382.834C564.94 382.481 565.221 382.062 565.413 381.6C565.605 381.138 565.703 380.642 565.703 380.142V375.069C565.703 374.058 565.302 373.088 564.586 372.373C563.871 371.658 562.901 371.256 561.89 371.256V371.256Z" stroke="#263238" stroke-width="1.16689" stroke-linecap="round" stroke-linejoin="round"/>
<path d="M608.319 392.079H586.285C585.273 392.079 584.303 392.481 583.588 393.196C582.873 393.911 582.471 394.881 582.471 395.893V400.965C582.471 401.466 582.57 401.961 582.762 402.423C582.953 402.885 583.234 403.305 583.589 403.658C583.943 404.011 584.364 404.291 584.826 404.481C585.289 404.671 585.784 404.768 586.285 404.767H594.444L597.302 409.706L600.159 404.767H608.319C608.819 404.768 609.316 404.671 609.779 404.481C610.242 404.291 610.664 404.011 611.019 403.658C611.374 403.305 611.656 402.886 611.849 402.424C612.043 401.962 612.143 401.466 612.144 400.965V395.893C612.141 394.88 611.737 393.91 611.019 393.195C610.302 392.481 609.331 392.079 608.319 392.079V392.079Z" fill="#BA68C8"/>
<path opacity="0.5" d="M608.319 392.079H586.285C585.273 392.079 584.303 392.481 583.588 393.196C582.873 393.911 582.471 394.881 582.471 395.893V400.965C582.471 401.466 582.57 401.961 582.762 402.423C582.953 402.885 583.234 403.305 583.589 403.658C583.943 404.011 584.364 404.291 584.826 404.481C585.289 404.671 585.784 404.768 586.285 404.767H594.444L597.302 409.706L600.159 404.767H608.319C608.819 404.768 609.316 404.671 609.779 404.481C610.242 404.291 610.664 404.011 611.019 403.658C611.374 403.305 611.656 402.886 611.849 402.424C612.043 401.962 612.143 401.466 612.144 400.965V395.893C612.141 394.88 611.737 393.91 611.019 393.195C610.302 392.481 609.331 392.079 608.319 392.079V392.079Z" fill="white"/>
<path d="M608.319 392.079H586.285C585.273 392.079 584.303 392.481 583.588 393.196C582.873 393.911 582.471 394.881 582.471 395.893V400.965C582.471 401.466 582.57 401.961 582.762 402.423C582.953 402.885 583.234 403.305 583.589 403.658C583.943 404.011 584.364 404.291 584.826 404.481C585.289 404.671 585.784 404.768 586.285 404.767H594.444L597.302 409.706L600.159 404.767H608.319C608.819 404.768 609.316 404.671 609.779 404.481C610.242 404.291 610.664 404.011 611.019 403.658C611.374 403.305 611.656 402.886 611.849 402.424C612.043 401.962 612.143 401.466 612.144 400.965V395.893C612.141 394.88 611.737 393.91 611.019 393.195C610.302 392.481 609.331 392.079 608.319 392.079V392.079Z" stroke="#263238" stroke-width="1.16689" stroke-linecap="round" stroke-linejoin="round"/>
<path d="M436.514 364.04H486.696" stroke="#263238" stroke-width="1.0631" stroke-miterlimit="10"/>
<path d="M436.514 369.404H486.696" stroke="#263238" stroke-width="1.0631" stroke-miterlimit="10"/>
<path d="M436.514 374.779H486.696" stroke="#263238" stroke-width="1.0631" stroke-miterlimit="10"/>
<path d="M436.514 380.142H486.696" stroke="#263238" stroke-width="1.0631" stroke-miterlimit="10"/>
<path d="M436.514 385.505H486.696" stroke="#263238" stroke-width="1.0631" stroke-miterlimit="10"/>
<path d="M167.252 449.622C166.586 450.421 165.908 451.268 165.182 452.237C156.174 464.343 160.872 489.767 155.4 499.15C149.927 508.532 136.223 505.845 133.487 520.59C130.751 535.336 132.276 550.736 129.964 558.121C127.651 565.506 118.62 570.227 117.046 578.896C115.472 587.564 115 593.847 115 593.847L167.252 592.128V449.622Z" fill="#BA68C8"/>
<path opacity="0.7" d="M167.252 449.622C166.586 450.421 165.908 451.268 165.182 452.237C156.174 464.343 160.872 489.767 155.4 499.15C149.927 508.532 136.223 505.845 133.487 520.59C130.751 535.336 132.276 550.736 129.964 558.121C127.651 565.506 118.62 570.227 117.046 578.896C115.472 587.564 115 593.847 115 593.847L167.252 592.128V449.622Z" fill="white"/>
<path d="M353.064 592.673L299.407 598.872L315.884 614.126L352.882 610.918" fill="#263238"/>
<path d="M353.064 592.673L299.407 598.872L315.884 614.126L352.882 610.918" stroke="#263238" stroke-width="0.969857" stroke-linecap="round" stroke-linejoin="round"/>
<path d="M316.901 601.305L351.272 597.552" stroke="white" stroke-width="0.484928" stroke-linecap="round" stroke-linejoin="round"/>
<path d="M319.589 605.058L350.739 602.383" stroke="white" stroke-width="0.484928" stroke-linecap="round" stroke-linejoin="round"/>
<path d="M322.809 608.278L351.272 605.591" stroke="white" stroke-width="0.484928" stroke-linecap="round" stroke-linejoin="round"/>
<path d="M320.327 599.102L330.122 609.78" stroke="white" stroke-width="0.484928" stroke-linecap="round" stroke-linejoin="round"/>
<path d="M327.579 598.75L337.313 608.811" stroke="white" stroke-width="0.484928" stroke-linecap="round" stroke-linejoin="round"/>
<path d="M335.11 597.673L344.831 607.734" stroke="white" stroke-width="0.484928" stroke-linecap="round" stroke-linejoin="round"/>
<path d="M343.16 597.14L351.272 605.591" stroke="white" stroke-width="0.484928" stroke-linecap="round" stroke-linejoin="round"/>
<path d="M298.197 465.627C296.429 464.876 288.245 433.024 288.245 433.024L284.032 421.014C284.032 421.014 277.7 399.404 275.279 395.384C272.858 391.365 263.172 388.12 263.172 388.12L259.54 386.123L243.802 377.648V377.733L241.538 372.999L214.443 351.207C214.443 351.207 214.928 356.462 215.654 361.643C215.581 361.643 210.012 365.275 208.027 368.459C207.652 369.052 207.325 370.324 205.824 373.653C199.77 376.776 176.974 388.726 169.431 394.549C160.581 401.365 158.971 406.183 159.371 410.203L159.782 416.619C159.782 416.619 163.559 439.622 167.494 450.966L167.01 450.736L166.877 591.922L280.231 587.625L280.412 482.745C284.286 481.474 288.318 479.985 290.751 478.908L291.356 479.452L296.465 483.193C297.287 483.811 298.24 484.229 299.25 484.416C300.261 484.603 301.301 484.553 302.289 484.271C304.456 483.653 303.1 481.087 301.526 480.239C300.331 479.433 299.198 478.538 298.136 477.564L293.415 471.68C296.248 472.188 300.787 472.987 302.676 473.254C305.485 473.653 309.105 474.464 309.504 470.832C309.904 467.2 301.017 466.837 298.197 465.627Z" fill="white"/>
<path d="M214.577 351.256C214.577 351.256 216.114 368.326 217.119 371.401C218.027 374.186 222.615 389.379 226.635 396.195C230.654 403.011 235.557 402.249 236.32 394.597C237.083 386.946 236.695 374.537 236.695 374.537" stroke="#263238" stroke-width="0.969857" stroke-linecap="round" stroke-linejoin="round"/>
<path d="M215.497 362.043C215.497 362.043 210.158 365.299 208.148 368.508C206.138 371.716 197.688 401.413 197.688 401.413L213.765 402.224L200.097 408.278" stroke="#263238" stroke-width="0.969857" stroke-linecap="round" stroke-linejoin="round"/>
<path d="M200.509 411.849C200.509 411.849 214.177 434.331 216.187 436.752C217.421 438.251 218.497 439.874 219.395 441.595" stroke="#263238" stroke-width="0.969857" stroke-linecap="round" stroke-linejoin="round"/>
<path d="M216.586 368.956C216.586 368.956 223.414 397.055 227.482 411.898C231.55 426.74 235.436 445.227 235.436 445.227" stroke="#263238" stroke-width="0.969857" stroke-linecap="round" stroke-linejoin="round"/>
<path d="M236.647 377.745C236.647 377.745 238.257 410.251 238.257 423.096V443.556" stroke="#263238" stroke-width="0.969857" stroke-linecap="round" stroke-linejoin="round"/>
<path d="M242.313 374.525L253.172 396.607L244.322 399.416L257.991 407.031L245.533 445.966" stroke="#263238" stroke-width="0.969857" stroke-linecap="round" stroke-linejoin="round"/>
<path d="M243.923 377.745L259.601 386.171" stroke="#263238" stroke-width="0.969857" stroke-linecap="round" stroke-linejoin="round"/>
<path d="M272.071 410.651L274.08 448.375" stroke="#263238" stroke-width="0.969857" stroke-linecap="round" stroke-linejoin="round"/>
<path d="M205.727 373.726C205.727 373.726 178.39 387.769 169.552 394.597C160.714 401.425 159.092 406.232 159.492 410.251" stroke="#263238" stroke-width="0.969857" stroke-linecap="round" stroke-linejoin="round"/>
<path d="M167.131 450.784V591.244" stroke="#263238" stroke-width="0.969857" stroke-linecap="round" stroke-linejoin="round"/>
<path d="M237.894 485.3V586.039" stroke="#263238" stroke-width="0.969857" stroke-linecap="round" stroke-linejoin="round"/>
<path d="M176.949 408.254C176.949 408.254 186.175 411.486 190.267 419.319" stroke="#263238" stroke-width="0.969857" stroke-linecap="round" stroke-linejoin="round"/>
<path d="M182.942 407.794C182.942 407.794 191.247 411.026 194.94 418.859" stroke="#263238" stroke-width="0.969857" stroke-linecap="round" stroke-linejoin="round"/>
<path d="M177.409 536.716H208.015V542.721H178.499" stroke="#263238" stroke-width="0.969857" stroke-linecap="round" stroke-linejoin="round"/>
<path d="M290.582 438.326C287.7 431.062 285.291 425.009 284.032 421.026C284.098 423.44 283.672 425.842 282.779 428.086C281.886 430.33 280.545 432.369 278.838 434.077C270.485 442.237 268.124 439.404 268.499 450.736C268.875 462.067 273.342 467.213 270.545 476.874C267.749 486.535 255.582 496.075 256.017 512.806C256.175 516.474 257.195 520.054 258.996 523.254L208.608 590.506L280.666 588.387V492.176L290.582 438.326Z" fill="#BA68C8"/>
<path opacity="0.7" d="M290.582 438.326C287.7 431.062 285.291 425.009 284.032 421.026C284.098 423.44 283.672 425.842 282.779 428.086C281.886 430.33 280.545 432.369 278.838 434.077C270.485 442.237 268.124 439.404 268.499 450.736C268.875 462.067 273.342 467.213 270.545 476.874C267.749 486.535 255.582 496.075 256.017 512.806C256.175 516.474 257.195 520.054 258.996 523.254L208.608 590.506L280.666 588.387V492.176L290.582 438.326Z" fill="white"/>
<path d="M280.727 542.419V584.223" stroke="#263238" stroke-width="0.969857" stroke-linecap="round" stroke-linejoin="round"/>
<path d="M257.228 317.939C259.649 317.539 271.695 309.912 269.686 302.285C267.676 294.658 250.763 285.42 237.494 289.851C229.501 292.512 222.117 296.739 215.775 302.285C215.775 302.285 206.937 302.285 203.669 305.917C200.4 309.549 202.87 315.142 204.879 319.161C206.623 322.636 206.55 331.849 206.501 334.234C206.392 334.228 206.283 334.253 206.187 334.307C205.514 334.678 204.927 335.187 204.464 335.8C204.001 336.413 203.672 337.117 203.499 337.866C202.954 340.287 203.959 343.52 206.405 347.176C207.218 348.549 208.362 349.696 209.732 350.515C211.102 351.333 212.655 351.796 214.25 351.861V351.861C215.298 353.069 216.152 354.433 216.78 355.905C217.797 358.326 227.93 373.871 233.729 374.319C234.565 374.391 235.364 374.416 236.15 374.416C241.15 374.416 244.782 373.072 246.732 370.481C249.31 367.055 255.703 353.241 256.502 346.522C256.635 345.311 256.707 343.798 256.744 341.982C257.638 340.85 258.125 339.448 258.125 338.005C258.125 336.562 257.638 335.161 256.744 334.028C256.611 326.922 256.235 319.561 256.138 317.866C256.491 317.973 256.864 317.998 257.228 317.939V317.939Z" fill="white"/>
<path d="M255.582 317.539C255.582 317.539 256.792 339.609 255.981 346.437C255.17 353.266 248.717 366.898 246.296 370.118C243.874 373.338 239.032 374.125 233.838 373.75C228.644 373.375 218.56 358.496 217.349 355.687C216.678 354.065 215.728 352.573 214.54 351.28C214.54 351.28 210.121 351.68 206.901 346.861C203.681 342.043 202.482 337.176 206.501 334.815" stroke="#263238" stroke-width="0.969857" stroke-linecap="round" stroke-linejoin="round"/>
<path d="M238.293 339.21C238.293 339.21 241.114 334.367 243.923 337.2L245.933 350.045L239.879 351.655L240.678 358.072" stroke="#263238" stroke-width="0.969857" stroke-linecap="round" stroke-linejoin="round"/>
<path d="M232.264 345.227C235.594 345.227 238.293 342.533 238.293 339.21C238.293 335.887 235.594 333.193 232.264 333.193C228.935 333.193 226.235 335.887 226.235 339.21C226.235 342.533 228.935 345.227 232.264 345.227Z" fill="#BA68C8" stroke="#263238" stroke-width="0.969857" stroke-linecap="round" stroke-linejoin="round"/>
<path opacity="0.4" d="M232.264 345.227C235.594 345.227 238.293 342.533 238.293 339.21C238.293 335.887 235.594 333.193 232.264 333.193C228.935 333.193 226.235 335.887 226.235 339.21C226.235 342.533 228.935 345.227 232.264 345.227Z" fill="white" stroke="#263238" stroke-width="1.16689" stroke-miterlimit="10"/>
<path d="M257.591 338.011C257.591 336.814 257.236 335.644 256.571 334.648C255.906 333.653 254.961 332.877 253.854 332.419C252.748 331.961 251.531 331.841 250.357 332.074C249.183 332.308 248.104 332.884 247.258 333.731C246.411 334.578 245.835 335.656 245.601 336.83C245.367 338.005 245.487 339.222 245.945 340.328C246.404 341.434 247.179 342.379 248.175 343.044C249.17 343.71 250.341 344.065 251.538 344.065C253.143 344.065 254.683 343.427 255.818 342.292C256.953 341.156 257.591 339.617 257.591 338.011V338.011Z" fill="#BA68C8" stroke="#263238" stroke-width="0.969857" stroke-linecap="round" stroke-linejoin="round"/>
<path opacity="0.4" d="M257.591 338.011C257.591 336.814 257.236 335.644 256.571 334.648C255.906 333.653 254.961 332.877 253.854 332.419C252.748 331.961 251.531 331.841 250.357 332.074C249.183 332.308 248.104 332.884 247.258 333.731C246.411 334.578 245.835 335.656 245.601 336.83C245.367 338.005 245.487 339.222 245.945 340.328C246.404 341.434 247.179 342.379 248.175 343.044C249.17 343.71 250.341 344.065 251.538 344.065C253.143 344.065 254.683 343.427 255.818 342.292C256.953 341.156 257.591 339.617 257.591 338.011V338.011Z" fill="white" stroke="#263238" stroke-width="1.16689" stroke-miterlimit="10"/>
<path d="M226.235 339.21L214.177 340.009" stroke="#263238" stroke-width="0.969857" stroke-linecap="round" stroke-linejoin="round"/>
<path d="M226.332 330.844C226.332 330.844 229.564 327.624 235.569 329.464" stroke="#263238" stroke-width="0.969857" stroke-linecap="round" stroke-linejoin="round"/>
<path d="M246.647 329.004C246.647 329.004 252.7 325.784 254.492 329.924" stroke="#263238" stroke-width="0.969857" stroke-linecap="round" stroke-linejoin="round"/>
<path d="M218.995 318.338C218.995 318.338 222.216 325.965 223.015 327.176C223.814 328.387 218.995 333.992 218.995 333.992V339.609L214.153 340.009L209.31 335.602L206.501 334.791C206.501 334.791 206.901 323.156 204.891 319.149C202.882 315.142 200.472 309.464 203.681 305.905C206.889 302.345 215.787 302.273 215.787 302.273C222.13 296.727 229.513 292.5 237.506 289.839C250.824 285.42 267.652 294.682 269.661 302.273C271.671 309.863 259.649 317.539 257.228 317.939C254.807 318.338 251.175 313.532 247.543 313.532H241.913C237.894 313.532 237.494 313.12 233.063 313.12C228.632 313.12 218.995 318.338 218.995 318.338Z" fill="#263238"/>
<path d="M224.032 311.752C224.032 311.752 230.896 307.951 234.334 301.474C237.773 294.997 226.32 298.047 223.269 302.236C220.218 306.425 227.47 304.9 227.47 304.9" stroke="white" stroke-width="0.484928" stroke-linecap="round" stroke-linejoin="round"/>
<path d="M218.995 318.338C218.995 318.338 214.879 322.793 209.54 323.181" stroke="white" stroke-width="0.484928" stroke-linecap="round" stroke-linejoin="round"/>
<path d="M220.981 323.943C220.981 323.943 213.717 327.37 209.916 327.37" stroke="white" stroke-width="0.484928" stroke-linecap="round" stroke-linejoin="round"/>
<path d="M209.916 330.408C209.916 330.408 215.642 331.619 218.693 330.408" stroke="white" stroke-width="0.484928" stroke-linecap="round" stroke-linejoin="round"/>
<path d="M230.134 312.515C230.134 312.515 233.184 312.14 243.1 308.713C253.015 305.287 256.417 301.449 249.964 296.522" stroke="white" stroke-width="0.484928" stroke-linecap="round" stroke-linejoin="round"/>
<path d="M429.408 527.745C429.408 527.745 413.609 485.724 409.553 481.68C405.497 477.636 385.17 465.251 385.17 465.251L383.536 462.455L382.543 459.053C382.543 459.053 381.332 453.932 377.846 451.401L377.567 450.808L353.596 440.542C353.596 440.542 353.766 443.714 354.02 447.539C351.187 448.568 344.904 451.329 342.749 456.244C341.344 459.428 340.545 464.719 340.146 469.694L339.165 470.421L339.528 469.089C339.528 469.089 312.991 483.968 311.792 486.389C310.243 488.423 306.235 501.462 306.235 501.462C306.235 501.462 302.24 513.992 297.846 527.83C291.647 546.862 285.654 565.881 285.267 568.92C285.267 569.198 285.267 569.065 285.267 569.065C284.867 574.283 304.795 593.52 304.795 593.52H305.061L307.482 595.942C307.482 595.942 307.482 595.7 307.482 594.937C309.165 598.363 311.913 603.412 314.093 602.346C315.884 601.462 315.303 598.351 313.85 594.295C315.654 597.044 317.725 599.041 319.371 598.242C322.216 596.838 320.8 591.983 317.942 585.034C317.698 584.441 317.326 583.909 316.854 583.476C316.381 583.043 315.818 582.719 315.206 582.528C316.126 582.431 317.059 582.334 318.015 582.213C318.972 586.656 321.114 590.506 323.524 589.997C325.933 589.489 326.296 586.366 325.812 581.051C326.054 581.051 326.381 580.336 326.623 580.3C327.688 584.041 329.323 587.37 331.381 586.935C333.645 586.45 334.262 584.198 333.996 579.671C333.996 577.988 333.875 577.443 333.814 576.378C334.698 576.922 339.032 579.537 339.528 579.913C341.139 581.123 353.391 578.508 353.391 578.508C371.284 572.721 399.892 572.455 418.367 560.082C430.703 551.765 429.408 527.745 429.408 527.745ZM316.623 562.116L321.465 530.252L323.39 559.307L322.821 566.474L316.623 562.116Z" fill="white"/>
<path d="M311.865 485.699L340.691 468.75C340.691 468.75 342.495 453.302 346.175 451.728C346.175 451.728 351.236 447.309 356.986 448.181C360.279 448.665 362.713 444.549 364.577 437.382C364.577 423.205 364.383 405.106 364.238 393.798C363.027 388.217 361.72 383.689 361.284 381.922L347.7 376.22C347.7 376.22 344.795 366.413 329.855 364.222C314.916 362.031 298.899 378.048 297.071 388.956C295.243 399.864 305.812 411.498 301.804 417.685C297.797 423.871 281.042 432.951 276.671 443.496C272.301 454.041 273.39 461.317 273.39 461.317C273.39 461.317 285.412 478.399 282.131 484.222C278.85 490.046 259.552 495.494 259.916 512.588C260.255 528.423 275.933 539.574 293.306 541.644L311.865 485.699Z" fill="#263238"/>
<path d="M343.403 379.137C343.403 379.137 333.112 367.345 320.146 371.147C307.18 374.948 302.216 388.665 304.892 395.517C307.567 402.37 313.657 408.072 309.08 418.35C304.504 428.629 293.063 430.154 287.289 441.958C281.514 453.762 283.1 457.576 283.1 457.576" stroke="white" stroke-width="0.484928" stroke-linecap="round" stroke-linejoin="round"/>
<path d="M336.538 389.04C336.538 389.04 327.01 390.179 327.01 396.304C327.01 402.43 332.349 405.433 333.064 413.048C333.778 420.663 331.538 423.714 325.8 433.229C320.061 442.745 319.746 447.697 323.899 454.174C328.051 460.651 330.763 471.305 325.424 475.106" stroke="white" stroke-width="0.484928" stroke-linecap="round" stroke-linejoin="round"/>
<path d="M338.826 381.425C338.826 381.425 327.386 375.372 318.245 381.05C309.105 386.728 321.296 398.181 322.821 408.835C324.347 419.488 316.768 427.116 306.429 438.532C303.4 441.987 301.151 446.053 299.835 450.455C298.519 454.857 298.167 459.491 298.802 464.041" stroke="white" stroke-width="0.484928" stroke-linecap="round" stroke-linejoin="round"/>
<path d="M298.027 477.37C298.027 477.37 300.691 483.072 293.439 490.687C286.187 498.302 270.557 500.215 266.804 511.632C263.051 523.048 270.545 529.15 270.545 529.15" stroke="white" stroke-width="0.484928" stroke-linecap="round" stroke-linejoin="round"/>
<path d="M353.681 439.9C353.681 439.9 354.48 455.203 355.291 459.21C356.102 463.217 359.335 477.527 360.558 490.167C361.149 496.724 362.365 503.211 364.19 509.537C364.19 509.537 373.984 547.576 374.565 499.791C374.771 482.939 372.955 456.45 372.955 456.45L373.754 448.423" fill="white"/>
<g style="mix-blend-mode:multiply" opacity="0.3">
<path d="M370.061 449.682L355.291 459.21L354.347 443.121C354.347 443.121 364.214 448.956 370.061 449.682Z" fill="#BA68C8"/>
</g>
<g style="mix-blend-mode:multiply" opacity="0.3">
<path d="M372.979 456.401C372.979 456.401 372.495 483.714 371.163 495.263C370.428 502.603 371.186 510.016 373.391 517.055C373.391 517.055 375.243 474.803 372.979 456.401Z" fill="#BA68C8"/>
</g>
<path d="M353.681 439.9C353.681 439.9 354.48 455.203 355.291 459.21C356.102 463.217 359.335 477.527 360.558 490.167C361.149 496.724 362.365 503.211 364.19 509.537C364.19 509.537 373.984 547.576 374.565 499.791C374.771 482.939 372.955 456.45 372.955 456.45L373.754 448.423" stroke="#263238" stroke-width="0.969857" stroke-linecap="round" stroke-linejoin="round"/>
<path d="M343.027 504.017L340.473 509.489L357.277 525.893L343.027 504.017Z" fill="#BA68C8"/>
<path opacity="0.7" d="M343.027 504.017L340.473 509.489L357.277 525.893L343.027 504.017Z" fill="white"/>
<path d="M323.451 516.111C323.451 516.111 329.068 503.133 330.836 506.087C332.604 509.041 321.381 521.716 325.812 523.484C330.243 525.252 336.708 518.762 334.674 524.065C332.64 529.368 329.068 535.566 329.068 538.23C329.068 540.893 330.279 567.128 330.279 567.128L330.582 568.896L327.035 571.317C327.035 571.317 323.197 567.479 323.197 564.235C323.197 560.99 322.603 548.012 322.603 545.07C322.603 542.128 321.223 531.753 321.223 531.753L323.451 516.111Z" fill="#BA68C8"/>
<path opacity="0.7" d="M323.451 516.111C323.451 516.111 329.068 503.133 330.836 506.087C332.604 509.041 321.381 521.716 325.812 523.484C330.243 525.252 336.708 518.762 334.674 524.065C332.64 529.368 329.068 535.566 329.068 538.23C329.068 540.893 330.279 567.128 330.279 567.128L330.582 568.896L327.035 571.317C327.035 571.317 323.197 567.479 323.197 564.235C323.197 560.99 322.603 548.012 322.603 545.07C322.603 542.128 321.393 531.026 321.393 531.026L323.451 516.111Z" fill="white"/>
<path d="M353.875 447.443C353.875 447.443 345.642 449.174 342.821 455.602C340.001 462.031 339.613 476.874 340.013 480.881C340.236 484.106 340.236 487.342 340.013 490.566L351.272 486.934" fill="white"/>
<g style="mix-blend-mode:multiply" opacity="0.3">
<path d="M355.424 457.636C352.033 457.716 348.77 458.95 346.175 461.135C341.417 464.876 340.921 471.619 340.921 471.619C340.921 471.619 339.42 463.629 342.422 456.644C345.424 449.658 353.875 447.443 353.875 447.443L355.424 457.636Z" fill="#BA68C8"/>
</g>
<path d="M353.875 447.443C353.875 447.443 345.642 449.174 342.821 455.602C340.001 462.031 339.613 476.874 340.013 480.881C340.236 484.106 340.236 487.342 340.013 490.566L351.272 486.934" stroke="#263238" stroke-width="0.969857" stroke-linecap="round" stroke-linejoin="round"/>
<path d="M354.081 487.709L341.623 501.753C341.623 501.753 350.872 516.196 355.291 521.014" stroke="#263238" stroke-width="0.969857" stroke-linecap="round" stroke-linejoin="round"/>
<path d="M385.848 519.005L392.277 494.525L381.018 486.05L389.868 483.242L382.604 458.363C382.604 458.363 381.26 452.116 376.55 450.106" stroke="#263238" stroke-width="0.969857" stroke-linecap="round" stroke-linejoin="round"/>
<path d="M360.134 475.663C360.134 475.663 364.153 480.506 368.608 479.682C373.064 478.859 373.027 476.474 373.027 476.474" stroke="#263238" stroke-width="0.969857" stroke-linecap="round" stroke-linejoin="round"/>
<path d="M320.8 480.724C320.8 480.724 314.298 487.806 314.589 489.573C314.88 491.341 322.567 494.586 320.8 496.644C319.032 498.702 314.589 493.702 313.705 494.586C312.821 495.469 296.574 550.905 298.051 551.765C299.528 552.624 303.076 549.404 303.959 551.474C304.843 553.545 289.189 559.428 292.434 561.16C295.679 562.891 303.657 559.089 302.119 559.683C300.582 560.276 296.211 565.869 297.398 568.23C298.584 570.591 311.235 582.552 311.235 582.552C310.49 582.859 309.893 583.443 309.571 584.182C309.248 584.92 309.224 585.755 309.504 586.511C309.841 588.032 310.697 589.389 311.926 590.348C311.926 590.348 308.536 587.552 308.015 590.579C307.719 592.157 307.545 593.756 307.495 595.361L299.202 587.152C292.446 580.276 286.95 573.835 285.327 568.302C285.327 568.302 285.037 569.114 286.816 562.624C288.596 556.135 306.308 500.699 306.308 500.699C306.308 500.699 310.315 487.648 311.853 485.627C313.39 483.605 320.8 480.724 320.8 480.724Z" fill="#BA68C8"/>
<path opacity="0.7" d="M320.8 480.724C320.8 480.724 314.298 487.806 314.589 489.573C314.88 491.341 322.567 494.586 320.8 496.644C319.032 498.702 314.589 493.702 313.705 494.586C312.821 495.469 296.574 550.905 298.051 551.765C299.528 552.624 303.076 549.404 303.959 551.474C304.843 553.545 289.189 559.428 292.434 561.16C295.679 562.891 303.657 559.089 302.119 559.683C300.582 560.276 296.211 565.869 297.398 568.23C298.584 570.591 311.235 582.552 311.235 582.552C310.49 582.859 309.893 583.443 309.571 584.182C309.248 584.92 309.224 585.755 309.504 586.511C309.841 588.032 310.697 589.389 311.926 590.348C311.926 590.348 308.536 587.552 308.015 590.579C307.495 593.605 307.228 595.591 307.228 595.591L299.202 587.116C290.824 578.75 285.642 572.152 285.327 568.266C285.327 568.266 284.347 570.106 286.816 562.588C288.911 556.196 306.308 500.663 306.308 500.663C306.308 500.663 310.315 487.612 311.853 485.59C313.39 483.569 320.8 480.724 320.8 480.724Z" fill="white"/>
<path d="M335.352 472.661V495.263L349.601 491.619L354.347 486.147L339.734 489.065L340.691 468.69L335.352 472.661Z" fill="#BA68C8"/>
<path opacity="0.7" d="M335.352 472.661V495.263L349.601 491.619L354.347 486.147L339.734 489.065L340.691 468.69L335.352 472.661Z" fill="white"/>
<path d="M339.613 468.447C339.613 468.447 313.076 483.29 311.865 485.699C310.654 488.109 285.739 563.181 285.339 568.375C284.94 573.569 305.037 593.254 305.037 593.254" stroke="#263238" stroke-width="0.969857" stroke-linecap="round" stroke-linejoin="round"/>
<path d="M324.734 506.172L316.695 561.547" stroke="#263238" stroke-width="0.969857" stroke-linecap="round" stroke-linejoin="round"/>
<path d="M325.533 502.951L326.744 497.334" stroke="#263238" stroke-width="0.969857" stroke-linecap="round" stroke-linejoin="round"/>
<path d="M293.778 564.767C293.778 564.767 299.008 557.503 306.647 557.939C314.286 558.375 325.533 569.174 325.533 569.174" stroke="#263238" stroke-width="0.969857" stroke-linecap="round" stroke-linejoin="round"/>
<path d="M296.187 556.329C297.873 554.814 300.021 553.911 302.283 553.766C304.546 553.621 306.791 554.242 308.657 555.53" stroke="#263238" stroke-width="0.969857" stroke-linecap="round" stroke-linejoin="round"/>
<path d="M333.499 573.048C333.412 572.381 333.168 571.745 332.789 571.189C332.41 570.634 331.905 570.175 331.316 569.851C330.726 569.527 330.069 569.346 329.397 569.323C328.724 569.3 328.056 569.436 327.446 569.719C326.951 569.967 326.529 570.34 326.221 570.8C325.913 571.261 325.731 571.794 325.691 572.346C325.243 576.765 327.955 587.625 331.587 586.874C334.601 586.196 334.504 580.482 333.499 573.048Z" fill="white" stroke="#263238" stroke-width="0.969857" stroke-linecap="round" stroke-linejoin="round"/>
<path d="M325.412 576.256C325.323 575.591 325.078 574.955 324.698 574.401C324.318 573.847 323.813 573.391 323.224 573.068C322.635 572.745 321.978 572.565 321.307 572.543C320.635 572.52 319.968 572.656 319.359 572.939C318.863 573.184 318.44 573.554 318.132 574.012C317.824 574.471 317.642 575.003 317.604 575.554C317.156 579.973 319.867 590.833 323.499 590.082C326.562 589.404 326.466 583.702 325.412 576.256Z" fill="white" stroke="#263238" stroke-width="0.969857" stroke-linecap="round" stroke-linejoin="round"/>
<path d="M318.027 584.344C317.776 583.715 317.38 583.154 316.871 582.707C316.362 582.26 315.755 581.94 315.099 581.772C314.443 581.605 313.756 581.594 313.095 581.743C312.434 581.891 311.818 582.193 311.296 582.625C310.875 582.985 310.555 583.45 310.37 583.973C310.186 584.495 310.142 585.058 310.243 585.603C310.896 589.985 316.223 599.901 319.528 598.218C322.374 596.765 320.8 590.905 318.027 584.344Z" fill="white" stroke="#263238" stroke-width="0.969857" stroke-linecap="round" stroke-linejoin="round"/>
<path d="M312.821 592.092C312.636 591.621 312.342 591.2 311.962 590.865C311.582 590.53 311.128 590.29 310.638 590.164C310.147 590.039 309.634 590.032 309.14 590.144C308.646 590.256 308.186 590.484 307.797 590.809C307.485 591.08 307.247 591.428 307.107 591.818C306.967 592.208 306.93 592.628 306.998 593.036C307.494 596.317 311.465 603.678 313.947 602.455C316.078 601.402 314.952 597.298 312.821 592.092Z" fill="white" stroke="#263238" stroke-width="0.969857" stroke-linecap="round" stroke-linejoin="round"/>
<path d="M334.117 575.978C334.117 575.978 337.265 579.38 339.601 580.106C341.526 580.7 351.538 578.896 351.538 578.896" stroke="#263238" stroke-width="0.969857" stroke-linecap="round" stroke-linejoin="round"/>
<path d="M348.451 586.438C348.451 586.438 342.022 588.036 337.555 588.859C333.088 589.683 328.306 590.07 328.306 590.07C328.306 590.07 325.085 594.089 322.676 594.089" stroke="#263238" stroke-width="0.969857" stroke-linecap="round" stroke-linejoin="round"/>
<path d="M385.255 464.598C385.255 464.598 405.582 476.995 409.638 481.038C413.693 485.082 427.931 523 427.931 523" stroke="#263238" stroke-width="0.969857" stroke-linecap="round" stroke-linejoin="round"/>
<path d="M404.577 491.656L409.129 524.525" stroke="#263238" stroke-width="0.969857" stroke-linecap="round" stroke-linejoin="round"/>
<path d="M409.129 520.566L406.296 496.147L418.814 523.726L409.698 524.138L409.129 520.566Z" fill="#BA68C8"/>
<path opacity="0.7" d="M409.129 520.566L406.296 496.147L418.814 523.726L409.698 524.138L409.129 520.566Z" fill="white"/>
<path d="M331.72 508.532L323.85 521.45L330.521 516.172" stroke="#263238" stroke-width="0.969857" stroke-linecap="round" stroke-linejoin="round"/>
<path d="M321.659 531.813C321.659 531.813 323.294 555.808 323.294 559.077C323.294 562.346 322.834 566.656 322.834 566.656" stroke="#263238" stroke-width="0.969857" stroke-linecap="round" stroke-linejoin="round"/>
<path d="M348.851 374.936C348.851 374.936 337.192 381.752 336.393 391.789C336.008 398.408 336.686 405.046 338.403 411.45C338.403 411.45 334.771 408.242 334.383 415.469C333.996 422.697 340.013 428.302 342.422 428.302H344.843C344.843 428.302 350.206 439.319 356.647 444.537C363.088 449.755 369.371 449.985 373.79 448.375C378.209 446.765 386.659 439.549 387.471 429.912C388.282 420.275 387.471 404.222 386.659 394.198C385.848 384.174 383.851 376.934 372.991 373.326C362.131 369.718 354.48 372.115 348.851 374.936Z" fill="white"/>
<g style="mix-blend-mode:multiply" opacity="0.3">
<path d="M338.403 411.45C338.403 411.45 334.771 408.242 334.383 415.469C333.996 422.697 340.013 428.302 342.422 428.302H344.843C344.843 428.302 350.206 439.307 356.647 444.537L359.407 446.438C360.348 447.007 361.331 447.501 362.349 447.915C360.182 445.251 355.473 439.113 353.257 433.593C350.328 426.329 349.625 410.99 350.328 401.147C351.03 391.304 356.175 387.285 356.175 387.285L348.911 386.922C347.834 386.922 342.204 395.3 336.49 400.106L338.403 411.45Z" fill="#BA68C8"/>
</g>
<path d="M348.851 374.936C348.851 374.936 337.192 381.752 336.393 391.789C336.008 398.408 336.686 405.046 338.403 411.45C338.403 411.45 334.771 408.242 334.383 415.469C333.996 422.697 340.013 428.302 342.422 428.302H344.843C344.843 428.302 350.206 439.319 356.647 444.537C363.088 449.755 369.371 449.985 373.79 448.375C378.209 446.765 386.659 439.549 387.471 429.912C388.282 420.275 387.471 404.222 386.659 394.198C385.848 384.174 383.851 376.934 372.991 373.326C362.131 369.718 354.48 372.115 348.851 374.936Z" stroke="#263238" stroke-width="0.969857" stroke-linecap="round" stroke-linejoin="round"/>
<path d="M367.47 411.777C367.47 411.777 370.836 406.026 374.19 409.355L376.611 420.772L371.768 421.765L372.228 428.895" stroke="#263238" stroke-width="0.969857" stroke-linecap="round" stroke-linejoin="round"/>
<path d="M360.279 418.956C364.251 418.956 367.47 415.742 367.47 411.777C367.47 407.812 364.251 404.597 360.279 404.597C356.308 404.597 353.088 407.812 353.088 411.777C353.088 415.742 356.308 418.956 360.279 418.956Z" fill="#BA68C8" stroke="#263238" stroke-width="0.969857" stroke-linecap="round" stroke-linejoin="round"/>
<path opacity="0.4" d="M360.279 418.956C364.251 418.956 367.47 415.742 367.47 411.777C367.47 407.812 364.251 404.597 360.279 404.597C356.308 404.597 353.088 407.812 353.088 411.777C353.088 415.742 356.308 418.956 360.279 418.956Z" fill="white" stroke="#263238" stroke-width="1.16689" stroke-miterlimit="10"/>
<path d="M390.509 410.336C390.512 408.913 390.093 407.522 389.305 406.337C388.518 405.152 387.397 404.227 386.085 403.678C384.772 403.129 383.327 402.982 381.93 403.253C380.534 403.525 379.249 404.204 378.238 405.205C377.227 406.206 376.535 407.484 376.249 408.877C375.964 410.271 376.097 411.718 376.632 413.036C377.168 414.354 378.082 415.484 379.259 416.283C380.436 417.082 381.823 417.515 383.245 417.527C384.196 417.537 385.139 417.358 386.02 417.001C386.901 416.644 387.702 416.116 388.377 415.447C389.053 414.778 389.589 413.982 389.955 413.105C390.321 412.228 390.509 411.286 390.509 410.336V410.336Z" fill="#BA68C8" stroke="#263238" stroke-width="0.969857" stroke-linecap="round" stroke-linejoin="round"/>
<path opacity="0.4" d="M390.509 410.336C390.512 408.913 390.093 407.522 389.305 406.337C388.518 405.152 387.397 404.227 386.085 403.678C384.772 403.129 383.327 402.982 381.93 403.253C380.534 403.525 379.249 404.204 378.238 405.205C377.227 406.206 376.535 407.484 376.249 408.877C375.964 410.271 376.097 411.718 376.632 413.036C377.168 414.354 378.082 415.484 379.259 416.283C380.436 417.082 381.823 417.515 383.245 417.527C384.196 417.537 385.139 417.358 386.02 417.001C386.901 416.644 387.702 416.116 388.377 415.447C389.053 414.778 389.589 413.982 389.955 413.105C390.321 412.228 390.509 411.286 390.509 410.336V410.336Z" fill="white" stroke="#263238" stroke-width="1.16689" stroke-miterlimit="10"/>
<path d="M353.088 411.777L338.693 412.733" stroke="#263238" stroke-width="0.969857" stroke-linecap="round" stroke-linejoin="round"/>
<path d="M354.42 402.176C355.259 401.144 356.365 400.362 357.619 399.916C358.872 399.47 360.223 399.376 361.526 399.646" stroke="#263238" stroke-width="0.969857" stroke-linecap="round" stroke-linejoin="round"/>
<path d="M376.78 399.137C377.968 398.485 379.339 398.25 380.676 398.469C382.013 398.689 383.237 399.35 384.153 400.348" stroke="#263238" stroke-width="0.969857" stroke-linecap="round" stroke-linejoin="round"/>
<path d="M386.647 394.198C385.848 384.162 383.839 376.934 372.979 373.326C362.119 369.718 354.48 372.115 348.851 374.936C348.851 374.936 337.192 381.752 336.393 391.789C336.008 398.408 336.686 405.046 338.403 411.45C338.403 411.45 341.623 414.658 342.422 410.239C343.221 405.82 340.812 398.593 352.107 390.166C363.403 381.74 379.444 385.76 385.073 393.798C385.731 394.325 386.299 394.955 386.756 395.663C386.768 395.517 386.659 394.379 386.647 394.198Z" fill="#263238"/>
<path d="M210.957 438.738C210.957 438.738 201.271 437.14 194.007 441.958C191.939 443.334 190.31 445.275 189.312 447.55C188.314 449.824 187.99 452.338 188.378 454.791" stroke="#263238" stroke-width="0.969857" stroke-linecap="round" stroke-linejoin="round"/>
<path d="M190.049 439.549C190.049 439.549 185.206 445.167 185.206 449.985" stroke="#263238" stroke-width="0.969857" stroke-linecap="round" stroke-linejoin="round"/>
<path d="M159.891 416.668C159.891 416.668 164.734 445.966 169.141 454.791C173.547 463.617 186.09 472.055 195.678 476.063C205.267 480.07 250.351 486.498 251.962 486.099C253.572 485.699 244.322 477.273 246.332 466.837C247.337 461.656 254.371 456.401 254.371 456.401C254.371 456.401 234.673 447.927 227.034 444.767C219.395 441.607 210.957 438.714 210.957 438.714C210.957 438.714 200.061 428.689 194.879 424.271C190.115 420.521 185.148 417.038 180 413.835" stroke="#263238" stroke-width="0.969857" stroke-linecap="round" stroke-linejoin="round"/>
<path d="M292.833 471.026L298.088 477.564C299.15 478.538 300.283 479.433 301.478 480.239C303.051 481.087 304.407 483.653 302.24 484.271C301.252 484.553 300.212 484.603 299.202 484.416C298.192 484.229 297.238 483.811 296.417 483.193L291.308 479.452L287.034 475.59L290.134 470.021L292.833 471.026Z" fill="white" stroke="#263238" stroke-width="0.969857" stroke-linecap="round" stroke-linejoin="round"/>
<path d="M254.371 456.401C254.371 456.401 266.841 459.21 270.86 460.033C274.879 460.857 295.388 464.452 298.197 465.651C301.005 466.849 309.855 467.261 309.456 470.869C309.056 474.477 305.436 473.677 302.628 473.29C299.819 472.903 290.957 471.293 290.957 471.293C290.957 471.293 293.778 476.51 292.979 477.709C292.18 478.908 274.08 485.336 270.46 485.336C266.841 485.336 264.407 478.908 262.821 476.862L257.979 470.808L248.293 466.401" fill="white"/>
<path d="M254.371 456.401C254.371 456.401 266.841 459.21 270.86 460.033C274.879 460.857 295.388 464.452 298.197 465.651C301.005 466.849 309.855 467.261 309.456 470.869C309.056 474.477 305.436 473.677 302.628 473.29C299.819 472.903 290.957 471.293 290.957 471.293C290.957 471.293 293.778 476.51 292.979 477.709C292.18 478.908 274.08 485.336 270.46 485.336C266.841 485.336 264.407 478.908 262.821 476.862L257.979 470.808L248.293 466.401" stroke="#263238" stroke-width="0.969857" stroke-linecap="round" stroke-linejoin="round"/>
<path d="M290.957 471.256L288.148 467.237" stroke="#263238" stroke-width="0.969857" stroke-linecap="round" stroke-linejoin="round"/>
<path d="M251.962 486.099C254.065 484.184 255.703 481.815 256.752 479.172C257.801 476.528 258.233 473.68 258.015 470.845" stroke="#263238" stroke-width="0.969857" stroke-linecap="round" stroke-linejoin="round"/>
<path d="M273.269 476.063L276.49 483.69" stroke="#263238" stroke-width="0.969857" stroke-linecap="round" stroke-linejoin="round"/>
<path d="M281.308 472.854L284.528 481.28" stroke="#263238" stroke-width="0.969857" stroke-linecap="round" stroke-linejoin="round"/>
<path d="M358.512 531.45V625.76L484.347 618.545V525.034L358.512 531.45Z" fill="#263238" stroke="#263238" stroke-width="0.969857" stroke-linecap="round" stroke-linejoin="round"/>
<path d="M484.347 525.034L477.907 521.414L353.282 527.443V619.344L358.512 625.76V531.45L484.347 525.034Z" fill="white" stroke="#263238" stroke-width="0.969857" stroke-linecap="round" stroke-linejoin="round"/>
<path d="M353.282 527.443L358.499 531.45" stroke="#263238" stroke-width="0.969857" stroke-linecap="round" stroke-linejoin="round"/>
<path d="M408.766 586.438V650.252L443.342 647.843V583.629L408.766 586.438Z" fill="#263238" stroke="#263238" stroke-width="0.969857" stroke-linecap="round" stroke-linejoin="round"/>
<path d="M407.688 622.564V586.438L443.342 583.629L443.439 620.324" stroke="white" stroke-width="0.969857" stroke-linecap="round" stroke-linejoin="round"/>
<path d="M408.766 650.252L390.667 634.199L408.766 633.387" fill="white"/>
<path d="M408.766 650.252L390.667 634.199L408.766 633.387" stroke="#263238" stroke-width="0.969857" stroke-linecap="round" stroke-linejoin="round"/>
<path opacity="0.7" d="M189.492 591.281L303.838 602.734C303.838 602.734 299.456 599.211 301.163 598.872C304.407 598.242 309.214 597.806 309.214 597.806L299.129 587.177L189.492 591.281" fill="#BA68C8"/>
<path opacity="0.7" d="M189.492 591.281L303.838 602.734C303.838 602.734 299.456 599.211 301.163 598.872C304.407 598.242 309.214 597.806 309.214 597.806L299.129 587.177L189.492 591.281" fill="white"/>
<path d="M299.214 587.225L120.763 593.581" stroke="#263238" stroke-width="0.969857" stroke-linecap="round" stroke-linejoin="round"/>
<path d="M483.488 583.387L603.779 657.625" stroke="#263238" stroke-width="0.969857" stroke-linecap="round" stroke-linejoin="round"/>
<path d="M264.831 602.08L201.865 609.767L242.434 652.37L310.303 643.981L264.831 602.08Z" fill="#BA68C8"/>
<path opacity="0.7" d="M264.831 602.08L201.865 609.767L242.434 652.37L310.303 643.981L264.831 602.08Z" fill="white"/>
<path d="M200.46 618.847L256.429 611.862L297.01 653.061L232.64 662.141L200.46 618.847Z" fill="white"/>
<path d="M234.565 656.148C234.468 656.148 234.376 656.11 234.308 656.041C234.24 655.973 234.201 655.881 234.201 655.785C234.201 655.688 234.24 655.596 234.308 655.528C234.376 655.46 234.468 655.421 234.565 655.421L286.042 648.799C286.137 648.791 286.232 648.819 286.308 648.878C286.384 648.936 286.436 649.02 286.453 649.114C286.46 649.163 286.457 649.212 286.444 649.259C286.431 649.307 286.409 649.351 286.378 649.39C286.347 649.428 286.309 649.46 286.266 649.483C286.223 649.507 286.175 649.521 286.126 649.525L234.661 656.148H234.565Z" fill="#BA68C8"/>
<path d="M231.695 652.709C231.599 652.709 231.507 652.671 231.438 652.603C231.37 652.535 231.332 652.443 231.332 652.346C231.332 652.25 231.37 652.158 231.438 652.089C231.507 652.021 231.599 651.983 231.695 651.983L283.172 645.361C283.269 645.348 283.366 645.374 283.443 645.433C283.521 645.492 283.571 645.579 283.584 645.676C283.597 645.772 283.571 645.869 283.512 645.947C283.453 646.024 283.366 646.074 283.269 646.087L231.804 652.709H231.695Z" fill="#BA68C8"/>
<path d="M228.838 649.271C228.748 649.272 228.66 649.238 228.593 649.178C228.526 649.118 228.484 649.034 228.475 648.944C228.464 648.848 228.491 648.752 228.55 648.676C228.608 648.599 228.694 648.548 228.79 648.533L280.231 641.91C280.327 641.906 280.422 641.937 280.498 641.997C280.573 642.057 280.625 642.142 280.642 642.237C280.647 642.285 280.643 642.333 280.629 642.379C280.615 642.425 280.592 642.468 280.562 642.505C280.532 642.542 280.494 642.573 280.452 642.596C280.409 642.618 280.363 642.632 280.315 642.637L228.85 649.271H228.838Z" fill="#BA68C8"/>
<path d="M225.969 645.821C225.873 645.821 225.78 645.783 225.712 645.715C225.644 645.646 225.606 645.554 225.606 645.458C225.606 645.361 225.644 645.269 225.712 645.201C225.78 645.133 225.873 645.095 225.969 645.095L277.446 638.472C277.542 638.462 277.638 638.489 277.715 638.547C277.792 638.606 277.843 638.692 277.858 638.787C277.864 638.835 277.862 638.883 277.849 638.93C277.837 638.977 277.816 639.02 277.787 639.059C277.757 639.097 277.721 639.129 277.679 639.153C277.637 639.177 277.591 639.193 277.543 639.199L226.066 645.821H225.969Z" fill="#BA68C8"/>
<path d="M223.112 642.383C223.023 642.383 222.937 642.352 222.871 642.294C222.804 642.236 222.76 642.156 222.748 642.068C222.742 642.02 222.744 641.971 222.757 641.925C222.769 641.878 222.79 641.834 222.82 641.796C222.849 641.758 222.886 641.726 222.927 641.702C222.969 641.678 223.015 641.662 223.063 641.656L274.54 635.034C274.636 635.023 274.733 635.05 274.809 635.109C274.886 635.167 274.937 635.253 274.952 635.349C274.959 635.397 274.956 635.447 274.943 635.494C274.93 635.542 274.907 635.586 274.877 635.624C274.846 635.663 274.808 635.695 274.765 635.718C274.722 635.742 274.674 635.756 274.625 635.76L223.16 642.383H223.112Z" fill="#BA68C8"/>
<path d="M220.242 638.932C220.152 638.933 220.065 638.899 219.998 638.839C219.93 638.779 219.888 638.695 219.879 638.605C219.872 638.51 219.9 638.415 219.958 638.339C220.016 638.263 220.1 638.211 220.194 638.194L271.671 631.571C271.769 631.561 271.867 631.59 271.944 631.651C272.021 631.712 272.071 631.801 272.083 631.898C272.093 631.993 272.066 632.088 272.007 632.162C271.948 632.237 271.862 632.286 271.768 632.298L220.291 638.932H220.242Z" fill="#BA68C8"/>
<path d="M217.385 635.494C217.297 635.495 217.211 635.463 217.144 635.405C217.077 635.347 217.034 635.267 217.022 635.179C217.015 635.131 217.018 635.083 217.03 635.036C217.042 634.989 217.064 634.946 217.093 634.907C217.122 634.869 217.159 634.837 217.201 634.813C217.243 634.789 217.289 634.774 217.337 634.768L268.814 628.145C268.909 628.138 269.004 628.166 269.08 628.224C269.156 628.282 269.208 628.366 269.226 628.46C269.232 628.509 269.229 628.558 269.216 628.606C269.203 628.653 269.181 628.697 269.15 628.736C269.12 628.774 269.082 628.806 269.038 628.83C268.995 628.853 268.948 628.867 268.899 628.872L217.434 635.494H217.385Z" fill="#BA68C8"/>
<path d="M214.516 632.056C214.42 632.056 214.327 632.017 214.259 631.949C214.191 631.881 214.153 631.789 214.153 631.692C214.153 631.596 214.191 631.504 214.259 631.436C214.327 631.368 214.42 631.329 214.516 631.329L265.993 624.707C266.041 624.701 266.089 624.704 266.136 624.716C266.182 624.729 266.226 624.75 266.264 624.779C266.302 624.808 266.334 624.845 266.359 624.886C266.383 624.928 266.398 624.974 266.405 625.022C266.411 625.069 266.408 625.118 266.396 625.164C266.383 625.211 266.362 625.255 266.333 625.293C266.303 625.331 266.267 625.363 266.225 625.387C266.184 625.411 266.138 625.427 266.09 625.433L214.613 632.056H214.516Z" fill="#BA68C8"/>
<path d="M211.659 628.617C211.569 628.618 211.481 628.585 211.414 628.524C211.347 628.464 211.305 628.38 211.296 628.291C211.285 628.195 211.312 628.098 211.371 628.022C211.429 627.945 211.515 627.894 211.61 627.879L263.088 621.257C263.185 621.249 263.281 621.279 263.357 621.34C263.434 621.4 263.484 621.487 263.499 621.584C263.504 621.631 263.5 621.68 263.486 621.726C263.472 621.772 263.45 621.814 263.419 621.851C263.389 621.889 263.351 621.919 263.309 621.942C263.267 621.965 263.22 621.978 263.172 621.983L211.707 628.617H211.659Z" fill="#BA68C8"/>
<path d="M208.802 625.167C208.705 625.167 208.613 625.129 208.545 625.061C208.477 624.993 208.439 624.9 208.439 624.804C208.439 624.708 208.477 624.615 208.545 624.547C208.613 624.479 208.705 624.441 208.802 624.441L260.279 617.818C260.375 617.808 260.471 617.835 260.548 617.893C260.624 617.952 260.676 618.038 260.69 618.133C260.697 618.181 260.695 618.23 260.682 618.276C260.67 618.323 260.649 618.367 260.619 618.405C260.59 618.443 260.553 618.475 260.512 618.499C260.47 618.523 260.424 618.539 260.376 618.545L208.802 625.167Z" fill="#BA68C8"/>
<g opacity="0.7">
<path d="M234.565 656.148C234.468 656.148 234.376 656.11 234.308 656.041C234.24 655.973 234.201 655.881 234.201 655.785C234.201 655.688 234.24 655.596 234.308 655.528C234.376 655.46 234.468 655.421 234.565 655.421L286.042 648.799C286.137 648.791 286.232 648.819 286.308 648.878C286.384 648.936 286.436 649.02 286.453 649.114C286.46 649.163 286.457 649.212 286.444 649.259C286.431 649.307 286.409 649.351 286.378 649.39C286.347 649.428 286.309 649.46 286.266 649.483C286.223 649.507 286.175 649.521 286.126 649.525L234.661 656.148H234.565Z" fill="white"/>
<path d="M231.695 652.71C231.599 652.71 231.507 652.671 231.438 652.603C231.37 652.535 231.332 652.443 231.332 652.346C231.332 652.25 231.37 652.158 231.438 652.09C231.507 652.021 231.599 651.983 231.695 651.983L283.172 645.361C283.269 645.348 283.366 645.374 283.443 645.433C283.521 645.492 283.571 645.579 283.584 645.676C283.597 645.772 283.571 645.869 283.512 645.947C283.453 646.024 283.366 646.074 283.269 646.087L231.804 652.71H231.695Z" fill="white"/>
<path d="M228.838 649.271C228.748 649.272 228.66 649.238 228.593 649.178C228.526 649.118 228.484 649.034 228.475 648.944C228.464 648.848 228.491 648.752 228.55 648.675C228.608 648.599 228.694 648.548 228.79 648.533L280.231 641.91C280.327 641.906 280.422 641.937 280.498 641.997C280.573 642.057 280.625 642.142 280.642 642.237C280.647 642.285 280.643 642.333 280.629 642.379C280.615 642.425 280.592 642.468 280.562 642.505C280.532 642.542 280.494 642.573 280.452 642.596C280.409 642.618 280.363 642.632 280.315 642.637L228.85 649.271H228.838Z" fill="white"/>
<path d="M225.969 645.821C225.873 645.821 225.78 645.783 225.712 645.715C225.644 645.646 225.606 645.554 225.606 645.458C225.606 645.361 225.644 645.269 225.712 645.201C225.78 645.133 225.873 645.095 225.969 645.095L277.446 638.472C277.542 638.462 277.638 638.489 277.715 638.547C277.791 638.606 277.843 638.692 277.858 638.787C277.864 638.835 277.862 638.883 277.849 638.93C277.837 638.977 277.816 639.02 277.787 639.059C277.757 639.097 277.721 639.129 277.679 639.153C277.637 639.177 277.591 639.193 277.543 639.199L226.066 645.821H225.969Z" fill="white"/>
<path d="M223.112 642.383C223.023 642.383 222.937 642.352 222.871 642.294C222.804 642.236 222.76 642.156 222.748 642.068C222.742 642.02 222.744 641.971 222.757 641.925C222.769 641.878 222.79 641.834 222.82 641.796C222.849 641.758 222.886 641.726 222.927 641.702C222.969 641.678 223.015 641.662 223.063 641.656L274.54 635.034C274.636 635.023 274.733 635.05 274.809 635.109C274.886 635.168 274.937 635.253 274.952 635.349C274.959 635.397 274.956 635.447 274.943 635.494C274.93 635.542 274.907 635.586 274.877 635.624C274.846 635.663 274.808 635.695 274.765 635.718C274.722 635.742 274.674 635.756 274.625 635.76L223.16 642.383H223.112Z" fill="white"/>
<path d="M220.242 638.932C220.152 638.933 220.065 638.899 219.998 638.839C219.93 638.779 219.888 638.695 219.879 638.605C219.872 638.51 219.9 638.415 219.958 638.339C220.016 638.263 220.1 638.211 220.194 638.194L271.671 631.571C271.769 631.561 271.867 631.59 271.944 631.651C272.021 631.712 272.071 631.801 272.083 631.898C272.093 631.993 272.066 632.088 272.007 632.162C271.948 632.237 271.862 632.286 271.768 632.298L220.291 638.932H220.242Z" fill="white"/>
<path d="M217.385 635.494C217.297 635.495 217.211 635.463 217.144 635.405C217.077 635.347 217.034 635.267 217.022 635.179C217.015 635.131 217.018 635.083 217.03 635.036C217.042 634.989 217.064 634.946 217.093 634.907C217.122 634.869 217.159 634.837 217.201 634.813C217.243 634.789 217.289 634.774 217.337 634.768L268.814 628.145C268.909 628.138 269.004 628.166 269.08 628.224C269.156 628.282 269.208 628.366 269.226 628.46C269.232 628.509 269.229 628.558 269.216 628.606C269.203 628.653 269.181 628.697 269.15 628.736C269.12 628.774 269.082 628.806 269.038 628.83C268.995 628.853 268.948 628.867 268.899 628.872L217.434 635.494H217.385Z" fill="white"/>
<path d="M214.516 632.056C214.42 632.056 214.327 632.017 214.259 631.949C214.191 631.881 214.153 631.789 214.153 631.692C214.153 631.596 214.191 631.504 214.259 631.436C214.327 631.367 214.42 631.329 214.516 631.329L265.993 624.707C266.041 624.701 266.089 624.704 266.136 624.716C266.182 624.728 266.226 624.75 266.264 624.779C266.302 624.808 266.334 624.845 266.359 624.886C266.383 624.928 266.398 624.974 266.405 625.022C266.411 625.069 266.408 625.118 266.396 625.164C266.383 625.211 266.362 625.255 266.333 625.293C266.303 625.331 266.267 625.363 266.225 625.387C266.184 625.411 266.138 625.427 266.09 625.433L214.613 632.056H214.516Z" fill="white"/>
<path d="M211.659 628.617C211.569 628.618 211.481 628.585 211.414 628.524C211.347 628.464 211.305 628.38 211.296 628.291C211.285 628.195 211.312 628.098 211.371 628.022C211.429 627.945 211.515 627.894 211.61 627.879L263.088 621.257C263.185 621.249 263.281 621.279 263.357 621.34C263.434 621.4 263.484 621.487 263.499 621.584C263.504 621.631 263.5 621.68 263.486 621.726C263.472 621.772 263.45 621.814 263.419 621.851C263.389 621.889 263.351 621.919 263.309 621.942C263.267 621.965 263.22 621.978 263.172 621.983L211.707 628.617H211.659Z" fill="white"/>
<path d="M208.802 625.167C208.705 625.167 208.613 625.129 208.545 625.061C208.477 624.993 208.439 624.9 208.439 624.804C208.439 624.708 208.477 624.615 208.545 624.547C208.613 624.479 208.705 624.441 208.802 624.441L260.279 617.818C260.375 617.808 260.471 617.835 260.548 617.893C260.624 617.952 260.676 618.038 260.69 618.133C260.697 618.181 260.695 618.23 260.682 618.276C260.67 618.323 260.649 618.367 260.619 618.405C260.59 618.443 260.553 618.475 260.512 618.499C260.47 618.523 260.424 618.539 260.376 618.545L208.802 625.167Z" fill="white"/>
</g>
<path d="M263.281 388.169C263.281 388.169 272.967 391.389 275.388 395.433C277.809 399.476 284.032 421.014 284.032 421.014" stroke="#263238" stroke-width="0.969857" stroke-linecap="round" stroke-linejoin="round"/>
</g>
<defs>
<clipPath id="clip0_2_2">
<rect width="770" height="927" fill="white"/>
</clipPath>
</defs>
</svg>
